<?xml version="1.0" encoding="UTF-8" standalone="no"?>
<!-- Created with Inkscape (http://www.inkscape.org/) -->

<svg
   xmlns:dc="http://purl.org/dc/elements/1.1/"
   xmlns:cc="http://creativecommons.org/ns#"
   xmlns:rdf="http://www.w3.org/1999/02/22-rdf-syntax-ns#"
   xmlns:svg="http://www.w3.org/2000/svg"
   xmlns="http://www.w3.org/2000/svg"
   xmlns:sodipodi="http://sodipodi.sourceforge.net/DTD/sodipodi-0.dtd"
   xmlns:inkscape="http://www.inkscape.org/namespaces/inkscape"
   id="svg3336"
   version="1.1"
   inkscape:version="0.91 r13725"
   width="706.20001"
   height="94.199997"
   viewBox="0 0 706.20001 94.199997"
   sodipodi:docname="Logo_blanco_coco_music.svg">
  <metadata
     id="metadata3342">
    <rdf:RDF>
      <cc:Work
         rdf:about="">
        <dc:format>image/svg+xml</dc:format>
        <dc:type
           rdf:resource="http://purl.org/dc/dcmitype/StillImage" />
        <dc:title></dc:title>
      </cc:Work>
    </rdf:RDF>
  </metadata>
  <defs
     id="defs3340" />
  <sodipodi:namedview
     pagecolor="#ffffff"
     bordercolor="#666666"
     borderopacity="1"
     objecttolerance="10"
     gridtolerance="10"
     guidetolerance="10"
     inkscape:pageopacity="0"
     inkscape:pageshadow="2"
     inkscape:window-width="1304"
     inkscape:window-height="745"
     id="namedview3338"
     showgrid="false"
     inkscape:zoom="1.6199377"
     inkscape:cx="32.839018"
     inkscape:cy="44.389028"
     inkscape:window-x="-8"
     inkscape:window-y="-8"
     inkscape:window-maximized="1"
     inkscape:current-layer="svg3336" />
  <g
     id="g3348"
     transform="translate(-0.1480769,-0.1480773)">
    <path
       style="fill:#fefefe"
       d="M 0,47.099998 0,0 l 353.1,0 353.10001,0 0,47.099998 0,47.099999 -353.10001,0 -353.1,0 0,-47.099999 z"
       id="path3364"
       inkscape:connector-curvature="0" />
    <path
       style="fill:#d4d0c7"
       d="M 37.950001,93.861174 C 32.761131,93.332463 27.470041,92.099517 24.219528,90.661659 20.494777,89.014026 14.994985,84.233607 11.467418,79.577526 4.8276538,70.813618 1.2631944,63.286204 0.56318275,56.549998 0.02183317,51.340597 -0.08515895,45.47681 0.28127817,41.099999 0.71741902,35.890628 0.87885688,35.05334 2.5682357,29.238828 5.5502194,18.975421 8.8856257,12.84575 14.152363,7.9499997 c 3.394182,-3.1550969 8.715311,-5.7152034 14.33675,-6.8977094 2.769741,-0.58263341 8.357059,-0.578979 12.010888,0.00786 7.217337,1.1591631 10.234149,2.3977033 30,12.3163707 12.236988,6.140622 12.48621,6.283666 14.566383,8.360498 1.794831,1.791949 2.380656,2.659949 3.855765,5.712984 2.410659,4.989348 3.203427,7.119255 5.471448,14.7 2.983704,9.972869 2.941476,12.480422 -0.321021,19.062689 -4.293405,8.662179 -13.257213,18.037211 -24.125256,25.232039 -6.637749,4.394301 -11.771595,6.757716 -15.647319,7.203396 -3.607878,0.414879 -13.149069,0.539208 -16.35,0.213051 z M 653.25001,93.126519 c -3.58845,-0.552045 -5.02734,-1.036221 -9.3,-3.129369 -6.79839,-3.330501 -14.04735,-8.545395 -20.20989,-14.53898 -5.49894,-5.348193 -9.05622,-9.987657 -11.61267,-15.145482 -3.2625,-6.582267 -3.30474,-9.08982 -0.32103,-19.062689 2.26803,-7.580745 3.06078,-9.710652 5.47143,-14.7 1.47516,-3.0531 2.06091,-3.920987 3.85578,-5.712916 2.08326,-2.079857 2.31588,-2.21303 14.86638,-8.511491 15.99141,-8.0252787 20.59086,-10.0951016 24.45,-11.0029282 7.81125,-1.83752015 16.24068,-1.74602241 22.04481,0.2392873 8.74947,2.9927655 14.4624,8.9606429 18.74358,19.5800989 1.10055,2.729968 3.45348,10.479662 4.0101,13.207949 0.97242,4.766211 1.14168,14.05049 0.38832,21.299999 -0.6993,6.729396 -4.26522,14.264325 -10.88733,23.005316 -3.25857,4.30122 -8.37453,8.895843 -11.96799,10.748382 -2.6085,1.344777 -8.8122,2.958921 -14.31681,3.7251 -4.12185,0.57372 -11.4777,0.572616 -15.21468,-0.0024 z"
       id="path3362"
       inkscape:connector-curvature="0" />
    <path
       style="fill:#cbc7bd"
       d="M 37.433476,93.718368 C 31.895202,93.082707 25.093596,91.182255 22.473458,89.538354 16.056048,85.512009 9.8833648,78.352105 4.9882675,69.25669 1.5736953,62.912191 0.02042091,56.177284 0.00594002,47.653612 -8.5260901e-4,43.655369 0.70123399,36.714791 1.3815587,34.054739 3.6446431,25.206139 6.4916074,18.093906 9.6340399,13.438546 12.348598,9.4170603 16.62894,5.6523706 20.4461,3.9290123 23.589824,2.5096947 28.014071,1.227157 31.055997,0.85332636 36.740764,0.15470995 44.763874,1.5271899 51.25378,4.3084778 c 2.087922,0.8947904 9.999507,4.7126833 17.581302,8.4842062 12.899529,6.416803 13.916277,6.980244 15.827382,8.770901 1.828569,1.713323 2.259144,2.356938 4.11432,6.15 1.13961,2.330028 2.545794,5.603799 3.124854,7.275048 1.684722,4.862352 4.440477,14.527538 4.607958,16.161365 0.424167,4.137855 -2.285298,10.725762 -7.057455,17.159799 -2.757477,3.717756 -10.595196,11.440802 -14.798532,14.582015 -5.796036,4.331463 -12.268089,8.09958 -16.867254,9.82035 -3.603747,1.348332 -13.226982,1.824087 -20.352879,1.006206 z M 83.034637,61.034083 c 2.328711,-0.972759 3.426195,-2.476896 5.789046,-7.934085 1.573581,-3.634308 1.623312,-3.833298 1.612059,-6.449999 -0.01032,-2.401149 -0.153549,-3.098466 -1.293969,-6.3 -0.705297,-1.98 -1.594011,-4.645023 -1.974918,-5.922273 -1.111224,-3.726135 -2.180607,-5.542938 -4.81596,-8.181981 -2.511024,-2.514538 -4.241448,-3.59907 -8.325021,-5.217649 C 70.7356,19.723952 66.641761,17.627652 63.150001,15.458976 59.50369,13.194309 51.538861,8.9376375 47.832667,7.27288 42.969607,5.0884774 41.141335,4.6534526 36.900001,4.6715225 29.987032,4.700975 27.248267,5.8599061 21.621668,11.136675 c -2.169369,2.034489 -4.013271,3.973845 -4.09756,4.309682 -0.338846,1.35007 0.845192,3.007452 5.574944,7.803642 4.187948,4.246776 5.106429,5.370513 7.969119,9.75 3.804768,5.820729 6.86353,9.979221 8.810266,11.977863 2.302113,2.363489 6.538785,4.111565 13.821564,5.702855 10.375557,2.267064 12.430524,3.029733 17.85,6.624762 5.707704,3.786225 8.880645,4.816353 11.484636,3.728604 z M 70.78348,55.637077 c -0.751587,-0.231624 -2.574087,-1.189236 -4.05,-2.128029 -5.334549,-3.393177 -6.729573,-3.96708 -15.583479,-6.410951 -2.507103,-0.692016 -5.712615,-1.825239 -7.238106,-2.558838 -4.515669,-2.171562 -7.046301,-5.466444 -9.97972,-12.993591 -0.990702,-2.542135 -1.502031,-3.398179 -3.018018,-5.05261 C 29.910284,25.397506 28.652673,23.614977 28.119466,22.531881 27.305886,20.879264 27.15,20.223931 27.15,18.456308 c 0,-1.773304 0.134588,-2.33528 0.851289,-3.554587 0.992158,-1.687937 2.833026,-2.970933 5.09229,-3.54908 2.301217,-0.588881 8.634916,-0.430928 12.913147,0.322034 6.803571,1.197419 11.093583,3.045065 16.421868,7.07266 1.845249,1.394806 5.081061,3.402464 7.713948,4.786119 6.571602,3.453556 8.059158,4.626751 9.572205,7.549341 2.097615,4.051743 4.15464,12.541425 3.916848,16.165481 -0.231147,3.522762 -2.477697,6.805533 -5.631594,8.229168 -1.619478,0.731016 -5.111778,0.808266 -7.216521,0.159633 z m 585.61653,37.7738 c -2.4642,-0.233814 -6.42858,-1.034052 -8.01162,-1.617195 -4.49076,-1.65426 -11.03931,-5.465439 -16.842,-9.80187 -4.20333,-3.141213 -12.04104,-10.864259 -14.79852,-14.582015 -4.84869,-6.537231 -7.50951,-13.083738 -7.02132,-17.274825 0.20565,-1.765569 2.8983,-11.216273 4.57182,-16.046339 0.57906,-1.671249 1.98525,-4.945021 3.12486,-7.275048 1.85493,-3.792537 2.28597,-4.436914 4.11396,-6.15 1.90272,-1.783101 2.94105,-2.361727 15.2274,-8.485666 15.85857,-7.9044665 20.92764,-10.1627828 24.57504,-10.9483567 8.30535,-1.78881049 15.14382,-1.60218788 21.31038,0.5815618 4.76352,1.686898 7.39557,3.3593847 10.67058,6.7804253 4.93176,5.1516516 8.46222,12.6938706 11.49786,24.5631896 0.68034,2.660052 1.3824,9.60063 1.37562,13.598874 -0.0144,8.523671 -1.56777,15.258578 -4.98234,21.603077 -4.4055,8.185743 -9.96594,14.939564 -15.69468,19.063109 -3.38007,2.432976 -7.8822,3.987963 -15.31704,5.290344 -3.36003,0.588588 -10.93056,0.973002 -13.8,0.700734 z M 629.17,59.544991 c 1.00932,-0.410112 3.47778,-1.821651 5.48547,-3.136752 5.63949,-3.693996 7.38381,-4.341849 17.84454,-6.627522 7.28277,-1.59129 11.51946,-3.339365 13.82157,-5.702855 1.94352,-1.995354 5.00034,-6.149976 8.81286,-11.977863 2.87157,-4.389495 3.78939,-5.510505 8.10555,-9.9 4.88349,-4.966452 5.86512,-6.366119 5.42883,-7.740761 -0.0961,-0.3026 -1.94316,-2.208758 -4.10472,-4.235908 -5.6109,-5.2620622 -8.35605,-6.422376 -15.26409,-6.4518075 -4.24134,-0.018069 -6.0696,0.416955 -10.93266,2.6013575 -3.7062,1.6647575 -11.67102,5.921429 -15.31734,8.186096 -3.49176,2.168676 -7.58559,4.264976 -10.87587,5.56912 -4.08357,1.618579 -5.814,2.703111 -8.32503,5.217649 -2.63535,2.639043 -3.70473,4.455847 -4.81596,8.181981 -0.38091,1.27725 -1.2696,3.942273 -1.9749,5.922273 -1.14471,3.21354 -1.28292,3.889845 -1.2876,6.3 -0.005,2.467655 0.0938,2.932343 1.14567,5.399999 2.63133,6.173061 3.73182,7.795893 6.03369,8.89761 1.5117,0.723534 3.62211,0.553002 6.21999,-0.502617 z m -0.96999,-4.949835 c -3.17775,-1.476093 -5.40096,-4.731723 -5.6316,-8.246879 -0.23778,-3.624057 1.81923,-12.113739 3.91686,-16.165482 1.51305,-2.92259 3.0006,-4.095785 9.57219,-7.549341 2.63289,-1.383655 5.86872,-3.391313 7.71396,-4.786119 5.32827,-4.027595 9.6183,-5.875241 16.42188,-7.07266 4.27821,-0.752962 10.61193,-0.910915 12.91314,-0.322034 2.25924,0.578147 4.10013,1.861143 5.09229,3.54908 0.7167,1.219307 0.85128,1.781283 0.85128,3.554587 0,1.767623 -0.15588,2.422956 -0.96948,4.075573 -0.53319,1.083096 -1.79079,2.865625 -2.79468,3.961177 -1.51599,1.654431 -2.02731,2.510475 -3.018,5.05261 -1.79289,4.600536 -3.41871,7.504797 -5.42985,9.699618 -2.34738,2.561742 -5.5353,4.146057 -11.78799,5.858316 -8.58486,2.35091 -10.65807,3.175628 -14.50935,5.771741 -3.61797,2.438844 -5.17773,3.030807 -8.29065,3.146529 -2.24847,0.08358 -2.92575,-0.0045 -4.05,-0.526716 z"
       id="path3360"
       inkscape:connector-curvature="0" />
    <path
       style="fill:#a38775"
       d="M 38.400001,93.741192 C 31.659351,92.898642 25.340286,91.12782 22.35,89.243421 16.703521,85.68516 11.394867,79.797849 6.6837835,71.869549 4.3194121,67.890538 3.3286044,65.742766 2.1478367,62.036983 0.58474798,57.131308 0.16190785,53.943838 0.18623862,47.249998 0.2114334,40.318454 0.68790979,37.065302 2.7066447,30.041873 5.6698744,19.73243 8.8579381,13.660982 13.847672,8.8245525 16.92692,5.8399108 19.516711,4.2929603 24.013801,2.7520555 29.638184,0.82488951 33.708036,0.46844582 39.861499,1.3640906 c 7.475997,1.0881415 9.968361,2.0938461 29.738502,11.9999134 12.755685,6.39139 13.433727,6.77315 15.230724,8.575418 1.556331,1.560895 2.207403,2.561024 3.774702,5.798409 2.453673,5.06826 3.367908,7.575225 5.739978,15.739851 1.459464,5.023442 1.954596,7.19234 1.954596,8.561969 0,11.398926 -16.372893,29.780387 -34.35,38.56394 -4.585071,2.240247 -5.678019,2.586669 -9.911958,3.14169 -4.121517,0.540282 -9.295305,0.538731 -13.638042,-0.0041 z M 83.937967,61.284814 c 1.904358,-0.897252 3.686889,-3.722586 5.930442,-9.399816 0.943515,-2.387529 1.120056,-3.190134 1.118505,-5.084999 -0.0021,-2.540106 -0.253158,-3.539757 -2.63724,-10.5 C 86.197852,30.017834 85.250686,28.22732 82.774975,25.761639 80.584558,23.580094 78.295927,22.172675 74.35609,20.58435 70.637557,19.085242 66.53134,16.977648 63.600001,15.063584 60.148636,12.809959 46.555951,5.9282101 43.950001,5.1151174 38.095588,3.2884589 30.650046,3.9797291 25.844238,6.79612 25.091139,7.2374659 23.505923,8.5551393 22.321538,9.7242834 21.137152,10.893427 19.477785,12.481609 18.634055,13.253576 17.41945,14.364873 17.1,14.851105 17.1,15.588549 c 0,1.79187 1.329579,3.651095 5.693432,7.96145 3.894003,3.846265 4.627512,4.75587 8.709172,10.8 5.4076,8.007582 7.92346,11.184486 9.814378,12.393108 2.41635,1.544459 6.41757,2.962208 11.999424,4.251743 10.596657,2.448063 14.388795,3.906978 18.909057,7.274712 2.279121,1.698012 4.481367,2.770077 6.949449,3.383025 1.835718,0.455898 3.245988,0.347007 4.763055,-0.367773 z M 653.8546,92.851161 c -3.66417,-0.523749 -5.14812,-0.988557 -9.00459,-2.820486 -11.67888,-5.547771 -24.19383,-16.377476 -30.37035,-26.280677 -1.91034,-3.062982 -3.44475,-6.418899 -4.11972,-9.010218 -0.83634,-3.210993 -0.63873,-4.818984 1.49466,-12.162098 2.37207,-8.164626 3.28632,-10.671591 5.73999,-15.739851 1.56729,-3.237385 2.21838,-4.237514 3.77469,-5.798409 1.797,-1.802268 2.47503,-2.184028 15.23073,-8.575418 19.77015,-9.9060672 22.26249,-10.9117718 29.73849,-11.99991334 6.15348,-0.89564482 10.22334,-0.53920113 15.84771,1.38796484 4.49709,1.5409048 7.08687,3.0878553 10.16613,6.072497 5.3568,5.1922325 8.90904,12.3760805 11.92356,24.1137395 3.05586,11.898519 2.34546,24.197111 -1.94946,33.748691 -3.01302,6.700815 -9.42669,15.395972 -14.42643,19.558262 -4.21827,3.511713 -6.4332,4.585821 -12.6,6.110193 -6.81897,1.685583 -15.47586,2.248995 -21.44541,1.395723 z M 626.89024,60.757156 c 2.61147,-0.615849 4.73988,-1.640472 7.15977,-3.446748 4.37349,-3.264495 8.64525,-4.882509 19.43799,-7.362549 5.02896,-1.155594 9.0435,-2.601726 11.39502,-4.104752 1.89093,-1.208622 4.40679,-4.385526 9.81438,-12.393108 4.08168,-6.04413 4.81518,-6.953735 8.70918,-10.8 4.36386,-4.310355 5.69343,-6.16958 5.69343,-7.96145 0,-0.737444 -0.31944,-1.223676 -1.53405,-2.334973 -0.84372,-0.771967 -2.50311,-2.3601488 -3.68748,-3.5292926 -1.1844,-1.169144 -2.7696,-2.4868175 -3.52272,-2.9281634 -4.80555,-2.8162421 -12.24996,-3.5075355 -18.10575,-1.6813148 -2.59086,0.8079989 -16.17624,7.6886388 -19.65,9.9522108 -2.93685,1.913708 -7.04721,4.022117 -10.75608,5.517334 -3.93984,1.588325 -6.22848,2.995744 -8.4189,5.177289 -2.47569,2.465681 -3.42288,4.256194 -5.57469,10.53836 -2.38407,6.960243 -2.63517,7.959894 -2.63724,10.5 -0.003,1.894283 0.17502,2.697536 1.11687,5.080793 2.4993,6.324303 4.53426,9.209208 6.94566,9.846723 1.58895,0.420075 1.53012,0.421221 3.61461,-0.07036 z"
       id="path3358"
       inkscape:connector-curvature="0" />
    <path
       style="fill:#936a4e"
       d="M 40.350001,93.89829 C 36.03799,93.394707 28.216898,91.587918 24.910158,90.331455 19.604087,88.315308 12.313902,80.812941 6.9186409,71.816296 3.6395578,66.348397 2.5752289,63.444118 0.554425,54.449998 0.03842066,52.153384 0.01062541,42.783443 0.51304336,40.499999 0.71271721,39.592499 1.2285414,37.178291 1.6593195,35.135096 3.3625854,27.056437 6.8152,18.291341 10.263826,13.290976 12.070538,10.671318 16.059076,6.8152513 18.382244,5.4421939 20.55988,4.1551505 25.858662,2.228281 28.934997,1.6047505 32.29317,0.92409534 38.491954,1.1961181 43.500001,2.2439102 c 4.908504,1.0269657 7.944201,2.3425425 25.045542,10.8539618 12.867405,6.404169 13.901238,6.977262 15.813882,8.766226 1.82808,1.709871 2.25834,2.350052 4.032525,6 2.561448,5.269548 3.007356,6.480252 5.516457,14.978046 2.888451,9.782567 2.843496,11.521892 -0.470583,18.207854 -2.473449,4.990032 -5.040975,8.363136 -10.632051,13.967922 -7.830459,7.849658 -16.48911,13.853918 -24.69342,17.123417 -4.140534,1.650042 -12.011394,2.428584 -17.762352,1.756953 z M 84.676555,61.324171 c 1.799286,-1.253715 3.492786,-3.941712 5.200581,-8.254587 1.411245,-3.56397 1.471983,-3.838821 1.451775,-6.569585 -0.02133,-2.883183 -0.803208,-6.044406 -2.448585,-9.9 -0.316863,-0.7425 -0.816627,-2.2275 -1.110588,-3.3 C 86.250988,27.758919 81.056968,22.393887 75.414562,20.538031 73.159963,19.796467 66.379081,16.39721 63.813751,14.722545 60.051829,12.266736 49.526779,6.8040076 45.266365,5.0960494 40.316992,3.1118951 33.270489,3.1551407 28.206069,5.2007512 c -2.28278,0.9220557 -4.949945,2.7401399 -5.962238,4.0641848 -0.426781,0.5582151 -1.705173,1.756336 -2.840871,2.66249 -1.225662,0.977937 -2.236516,2.058279 -2.487145,2.658118 -0.386458,0.924923 -0.36171,1.159531 0.29203,2.768395 0.604511,1.487711 1.403556,2.444587 5.199845,6.226946 4.022178,4.00742 4.868246,5.042472 8.189772,10.019114 4.325082,6.480267 7.661566,10.93179 9.309262,12.420384 2.378328,2.148677 6.201228,3.66515 13.361541,5.300279 2.815047,0.642843 6.525588,1.586889 8.245647,2.097882 3.634914,1.07985 8.78889,3.626199 10.923465,5.396802 1.82202,1.511337 2.716947,1.98897 5.412624,2.888778 2.872038,0.95868 5.081919,0.83568 6.826554,-0.379953 z M 653.40001,92.525529 c -3.35184,-0.482196 -5.37948,-1.168725 -9.41541,-3.187941 -7.48617,-3.745398 -13.79883,-8.411484 -20.59035,-15.219668 -5.5911,-5.604786 -8.15862,-8.97789 -10.63206,-13.967922 -3.31407,-6.685962 -3.35904,-8.425287 -0.47058,-18.207854 2.51937,-8.532573 2.99466,-9.823833 5.52807,-15.018821 1.75464,-3.597964 2.19618,-4.25247 4.01925,-5.957671 1.91475,-1.790943 2.94435,-2.361728 15.81555,-8.76778 7.57209,-3.7686697 15.46125,-7.5760091 17.53149,-8.4607538 3.70566,-1.5836711 8.20278,-2.75920565 13.36404,-3.4933108 2.6751,-0.38049045 7.43289,-0.11749484 9.50073,0.52517043 4.47504,1.39079167 7.9416,2.72346127 9.61869,3.69775387 2.43714,1.4158472 6.39384,5.2086028 8.26674,7.9242443 3.44865,5.000365 6.90126,13.765461 8.60451,21.84412 0.4308,2.043195 0.94662,4.457403 1.1463,5.364903 0.50241,2.283444 0.4746,11.653385 -0.0414,13.949999 -2.04897,9.119472 -3.04227,11.826753 -6.38331,17.398065 -5.61954,9.370847 -12.78798,16.592234 -18.54597,18.683003 -2.95677,1.073616 -8.74575,2.421054 -12.55665,2.922669 -4.11312,0.541395 -10.89024,0.528444 -14.75964,-0.0282 z M 628.09342,60.8662 c 2.6619,-0.820344 3.83916,-1.432875 5.6655,-2.947791 2.13795,-1.773381 7.28991,-4.319316 10.92717,-5.399865 1.72008,-0.510993 5.4306,-1.455039 8.24565,-2.097882 7.16031,-1.635129 10.98321,-3.151602 13.36155,-5.300279 1.64769,-1.488594 4.98417,-5.940117 9.30927,-12.420384 3.32151,-4.976642 4.16757,-6.011694 8.18976,-10.019114 3.79629,-3.782359 4.59534,-4.739235 5.19984,-6.226946 0.65373,-1.608864 0.67848,-1.843472 0.29205,-2.768395 -0.25065,-0.599839 -1.2615,-1.680181 -2.48715,-2.658118 -1.13571,-0.906154 -2.4141,-2.1042749 -2.84088,-2.66249 -1.01229,-1.3240448 -3.67947,-3.1421291 -5.96223,-4.0641847 -5.06442,-2.0456106 -12.11094,-2.0888561 -17.06031,-0.1047018 -4.26042,1.7079581 -14.78547,7.1706865 -18.54738,9.6264955 -2.56533,1.674665 -9.3462,5.073922 -11.60082,5.815486 -5.6424,1.855856 -10.83642,7.220888 -12.35517,12.761968 -0.29397,1.0725 -0.79371,2.5575 -1.11057,3.3 -1.64538,3.855594 -2.42727,7.016817 -2.4486,9.9 -0.0201,2.726285 0.0421,3.009557 1.43445,6.525728 3.34905,8.45751 6.09624,10.494504 11.78787,8.740473 z"
       id="path3356"
       inkscape:connector-curvature="0" />
    <path
       style="fill:#8e5731"
       d="m 40.958296,93.995067 c -1.15044,-0.06904 -2.16294,-0.225903 -2.25,-0.348591 -0.08706,-0.122685 -1.238295,-0.396243 -2.558295,-0.607905 C 29.838931,92.02659 24.450161,90.255045 21.524765,88.230561 15.350286,83.957586 8.6107027,75.616504 4.6533007,67.349998 2.8509085,63.585031 0.90000001,56.977345 0.90000001,54.637645 c 0,-0.323205 -0.16383315,-0.642258 -0.3640737,-0.709005 C 0.07625605,53.775418 0.02458299,41.16698 0.4823356,40.852289 0.64417309,40.741028 0.94954024,39.569999 1.1609293,38.249999 2.47799,30.02573 6.4528981,19.202964 10.190873,13.663526 12.701153,9.9434514 16.434478,6.5305957 19.99454,4.7014073 22.001929,3.6699947 28.174242,1.8202102 30.737637,1.4818015 c 5.154856,-0.68052211 13.292788,0.5143888 19.062364,2.7989707 1.7325,0.6860186 9.838629,4.5778918 18.013623,8.6486068 17.876859,8.901735 17.269866,8.454241 20.491854,15.107176 1.101951,2.275366 2.405412,5.275603 2.896584,6.667195 1.500957,4.25253 4.47777,14.668367 4.674204,16.354988 0.682476,5.859867 -4.532757,15.404058 -13.081911,23.940678 -9.081906,9.068591 -21.478401,16.855391 -28.725441,18.043745 -1.275402,0.209139 -2.38749,0.476334 -2.471304,0.593766 -0.191601,0.268449 -7.842324,0.525987 -10.639314,0.35814 z M 22.098685,64.724998 c -0.08322,-0.20625 -0.151316,-0.0375 -0.151316,0.375 0,0.4125 0.06809,0.58125 0.151316,0.375 0.08322,-0.20625 0.08322,-0.54375 0,-0.75 z m -16.3986849,-0.825 c 0,-0.165 -0.1429674,-0.3 -0.3177051,-0.3 -0.1747377,0 -0.2342706,0.135 -0.1322949,0.3 0.1019757,0.165 0.2449428,0.3 0.3177051,0.3 0.072762,0 0.1322949,-0.135 0.1322949,-0.3 z m 78.3000009,-0.3 c 0,-0.165 -0.135,-0.3 -0.3,-0.3 -0.165,0 -0.3,0.135 -0.3,0.3 0,0.165 0.135,0.3 0.3,0.3 0.165,0 0.3,-0.135 0.3,-0.3 z m -58.308488,-0.75 c 0.09497,-0.2475 0.08914,-0.667704 -0.01297,-0.933786 -0.269954,-0.703488 -1.06325,0.02748 -0.862587,0.794817 0.182778,0.698943 0.633234,0.770439 0.875552,0.138969 z m 57.258488,-0.206259 c 0.66,-0.1941 1.297218,-0.329691 1.416042,-0.301311 0.118824,0.02838 0.359823,-0.217059 0.535557,-0.545415 0.374034,-0.698889 1.198401,-0.800019 1.198401,-0.147015 0,0.2475 0.135,0.45 0.3,0.45 0.394857,0 0.382002,-0.397998 -0.02604,-0.806037 -0.234714,-0.234714 -0.03449,-0.740814 0.714831,-1.806885 0.572475,-0.814467 1.278576,-1.940532 1.569111,-2.502366 0.507456,-0.981309 0.537978,-0.995205 0.775503,-0.353112 0.135993,0.36762 0.454107,0.6684 0.706926,0.6684 0.632547,0 0.576213,-0.553212 -0.1173,-1.151913 -0.569286,-0.491457 -0.569289,-0.52164 -2.1e-5,-2.267322 0.830901,-2.548011 1.1388,-2.829408 1.856163,-1.696407 0.318861,0.503604 0.701487,0.915642 0.850284,0.915642 0.510099,0 0.270648,-0.865902 -0.361983,-1.309014 -0.347886,-0.243669 -0.542421,-0.588825 -0.432294,-0.76701 0.110124,-0.178188 0.07607,-0.323976 -0.07568,-0.323976 -0.349281,0 -0.07456,-5.812787 0.281208,-5.949998 0.428406,-0.165228 0.29187,-1.250001 -0.157329,-1.250001 -0.242967,0 -0.503487,-0.463083 -0.625047,-1.111047 -0.114636,-0.611073 -0.477876,-1.639197 -0.807195,-2.284716 -0.38184,-0.74847 -0.530418,-1.445979 -0.410112,-1.925313 0.140925,-0.561489 0.02871,-0.863679 -0.443613,-1.194495 -0.483969,-0.338988 -0.589362,-0.638169 -0.449358,-1.275603 0.123117,-0.560544 0.04988,-0.883794 -0.22404,-0.988908 -0.223821,-0.08589 -0.582123,-0.744255 -0.796227,-1.46304 -0.214107,-0.718782 -0.577947,-1.665207 -0.808539,-2.103165 -0.230589,-0.437958 -0.419253,-1.011708 -0.419253,-1.275001 0,-0.263291 -0.125904,-0.478712 -0.279783,-0.478712 -0.153882,0 -0.374406,-0.30375 -0.490056,-0.675 -0.249267,-0.800182 -1.834107,-2.902399 -2.629878,-3.488412 -0.31659,-0.233139 -0.433719,-0.494775 -0.268605,-0.599999 0.180129,-0.114795 0.19071,-0.459542 0.02751,-0.895978 -0.206895,-0.553247 -0.431013,-0.677709 -1.018212,-0.565459 -1.057704,0.202193 -3.810885,-1.482488 -4.042425,-2.473576 -0.170463,-0.729605 -1.198551,-1.264496 -1.198551,-0.623573 0,0.177099 -0.1575,0.321997 -0.350001,0.321997 -0.192498,0 -0.26475,-0.08525 -0.160554,-0.189445 0.29667,-0.296671 -0.360915,-1.310555 -0.849999,-1.310555 -0.587103,0 -0.554694,0.296369 0.08555,0.782387 1.002618,0.761096 -0.295635,0.460277 -3.287559,-0.761762 -3.437163,-1.403896 -4.737441,-2.053853 -4.737441,-2.368062 0,-0.127616 -0.43875,-0.392227 -0.975,-0.588025 -0.886608,-0.323721 -1.867413,-1.005139 -3.3,-2.292689 C 63.236251,13.412331 62.814031,13.2 62.586733,13.2 c -0.227295,0 -0.581325,-0.2025 -0.786732,-0.45 -0.205407,-0.2475 -0.610407,-0.45 -0.9,-0.45 -0.289593,0 -0.694593,-0.2025 -0.9,-0.45 -0.205407,-0.2475 -0.572346,-0.45 -0.815421,-0.45 -0.243078,0 -0.800298,-0.254558 -1.238268,-0.565683 -0.43797,-0.311125 -1.268811,-0.785134 -1.846311,-1.0533534 -0.5775,-0.2682192 -1.6575,-0.8033145 -2.4,-1.1891001 -0.7425,-0.3857859 -2.2275,-1.0885025 -3.3,-1.5615929 -1.0725,-0.4730907 -2.3178,-1.1076753 -2.767335,-1.4101887 C 46.83406,5.0826625 45.657694,4.7048282 41.700001,3.7145798 39.20518,3.0903542 31.655535,3.0976436 30.640032,3.7252598 c -0.187017,0.1155834 -0.48582,0.1200495 -0.664007,0.00992 -0.178186,-0.1101252 -0.523341,0.084408 -0.767011,0.4322949 -0.605817,0.8649248 -1.612165,0.8593742 -1.385435,-0.00764 0.121133,-0.4632138 0.05118,-0.5991903 -0.253086,-0.4919301 -0.231271,0.081529 -0.388648,0.4353309 -0.349727,0.7862271 0.05251,0.4734545 -0.232374,0.7926434 -1.104645,1.2376433 -0.646476,0.3298074 -1.263432,0.7420704 -1.371013,0.91614 C 24.637527,6.7819876 24.290867,6.8423194 23.974753,6.7419889 23.59617,6.621829 23.4,6.7022089 23.4,6.9774892 c 0,0.2298573 -0.32528,0.723507 -0.722845,1.0969994 -0.637185,0.5986053 -0.73495,0.6184383 -0.825,0.1673658 C 21.760181,7.7811364 21.67526,7.7928925 21,8.3598255 l -0.75,0.6296826 0.667833,0.188361 C 21.465052,9.332211 21.530872,9.4686114 21.282278,9.9331149 21.115414,10.244902 20.836421,10.5 20.662293,10.5 c -0.308156,0 -3.492053,2.550227 -3.932699,3.15 -0.449967,0.612461 -0.201652,2.74742 0.493093,4.239509 0.519337,1.115369 1.946189,2.768393 5.179061,6 3.913687,3.912156 4.863918,5.069 7.729763,9.41049 3.921531,5.940753 8.118943,11.524044 9.816559,13.057737 2.235798,2.019911 6.081408,3.507188 13.601931,5.260511 2.805,0.653952 6.315,1.535433 7.8,1.958841 3.62052,1.0323 8.338212,3.342762 10.683768,5.232318 3.150243,2.537802 4.172028,3.048141 7.766232,3.878898 1.51956,0.351228 1.818579,0.346998 3.15,-0.04457 z M 4.9500001,62.399998 c -0.1019757,-0.165 -0.2449428,-0.3 -0.3177051,-0.3 -0.072762,0 -0.1322949,0.135 -0.1322949,0.3 0,0.165 0.1429674,0.3 0.3177051,0.3 0.1747377,0 0.2342706,-0.135 0.1322949,-0.3 z m 83.1000009,-1.2 c 0.323058,-0.522717 -0.155787,-0.968664 -0.623406,-0.580575 -0.230994,0.191706 -0.346008,0.468264 -0.255585,0.614568 0.218844,0.354096 0.649431,0.337443 0.878991,-0.03399 z M 8.4000001,60.917704 c 0,-0.407178 -0.5293599,-0.674709 -0.7211145,-0.364443 -0.1792953,0.290106 0.080492,0.646737 0.4711146,0.646737 0.1374999,0 0.2499999,-0.127032 0.2499999,-0.282294 z M 9.4623358,59.080039 C 9.738439,58.633294 9.4183186,58.390402 8.8439239,58.610818 8.5788496,58.712536 8.4459946,58.931713 8.5486906,59.09788 8.7918631,59.491342 9.2132221,59.483113 9.4623358,59.08003 Z M 91.986175,58.963912 c 0.09204,-0.239847 -0.02019,-0.703836 -0.249417,-1.031091 -0.390252,-0.55716 -0.416757,-0.529425 -0.416757,0.436086 0,1.053129 0.365205,1.379316 0.666174,0.595005 z M 28.006193,58.364323 c 0.780481,-0.723324 1.035785,-1.364325 0.543397,-1.364325 -0.2582,0 -1.84959,1.675548 -1.84959,1.947402 0,0.355455 0.566237,0.10269 1.306193,-0.583077 z M 13.5,55.499998 c 0,-0.165 -0.142967,-0.3 -0.317705,-0.3 -0.174738,0 -0.234271,0.135 -0.132295,0.3 0.101976,0.165 0.244943,0.3 0.317705,0.3 0.07276,0 0.132295,-0.135 0.132295,-0.3 z M 33,53.532292 c 0,-0.257238 -0.135,-0.38427 -0.3,-0.282294 -0.165,0.101976 -0.3,0.312444 -0.3,0.467706 0,0.155262 0.135,0.282294 0.3,0.282294 0.165,0 0.3,-0.210468 0.3,-0.467706 z m -4.353024,-1.337187 c -0.103639,-0.167691 -0.314106,-0.227226 -0.467705,-0.132294 -0.416113,0.257169 -0.338523,0.437187 0.188435,0.437187 0.257237,0 0.382909,-0.137202 0.27927,-0.304893 z M 11.924959,51.424957 c -0.285887,-0.285888 -0.859047,0.17718 -0.645992,0.52191 0.126636,0.2049 0.294439,0.199725 0.509893,-0.01572 0.176627,-0.176628 0.237872,-0.404409 0.136099,-0.506181 z m 81.760743,-0.129633 c -0.225333,-0.861675 -0.668805,-1.040793 -1.217751,-0.491847 -0.399948,0.399945 -0.407205,0.496035 -0.04621,0.61173 0.621042,0.199038 1.320903,0.433707 1.375176,0.461106 0.0258,0.01302 -0.02424,-0.248418 -0.111213,-0.580989 z M 6.0981175,49.922974 C 5.9886514,49.63771 5.6844859,49.564843 5.1437227,49.694335 c -1.1045751,0.264507 -1.1205048,0.314841 -0.3112215,0.983367 0.639612,0.528363 0.7559697,0.542295 1.0718937,0.12834 0.1949172,-0.255399 0.2820924,-0.652782 0.1937226,-0.883068 z M 18.3,50.382292 c 0,-0.155262 -0.2025,-0.282294 -0.45,-0.282294 -0.463923,0 -0.596011,0.353988 -0.258156,0.691845 C 17.831524,51.031522 18.3,50.760586 18.3,50.382292 Z m -2.946334,-0.732294 c -0.07896,-0.441408 -0.731929,-0.365211 -0.888216,0.10365 -0.08626,0.258786 0.05861,0.366453 0.403666,0.3 0.296019,-0.05701 0.514067,-0.23865 0.48455,-0.40365 z m 8.827584,-0.668751 c -0.304954,-0.304953 -0.556574,0.154167 -0.306365,0.559014 0.189011,0.305826 0.259673,0.306063 0.361291,0.0012 0.06948,-0.208437 0.04476,-0.460539 -0.05493,-0.560226 z M 7.7487991,48.794308 c 0.076325,-0.396324 -0.046785,-0.519435 -0.4431099,-0.443109 -0.3018396,0.05813 -0.5963589,0.35265 -0.6544881,0.654489 -0.076325,0.396324 0.046785,0.519435 0.4431099,0.443109 0.3018396,-0.05813 0.5963589,-0.35265 0.6544881,-0.654489 z M 18.3,48.552709 c 0,-0.1506 -0.273781,-0.127299 -0.608402,0.05179 -0.334622,0.179085 -0.525103,0.460389 -0.423292,0.625122 C 17.473465,49.561573 18.3,49.019272 18.3,48.552709 Z M 4.5000001,48.299998 c 0,-0.165 -0.1270326,-0.3 -0.2822949,-0.3 -0.1552623,0 -0.3657294,0.135 -0.4677051,0.3 -0.1019757,0.165 0.025056,0.3 0.2822949,0.3 0.2572377,0 0.4677051,-0.135 0.4677051,-0.3 z M 3.7371271,47.114224 C 4.1228914,46.687958 4.5019087,46.57538 5.1290032,46.700801 6.1233139,46.899662 6.61417,46.190027 5.9968294,45.44618 5.5179232,44.869133 4.8000001,44.871422 4.8000001,45.44998 c 0,0.426351 -0.6684081,0.603384 -1.8850869,0.499284 -0.6852101,-0.05863 -0.9926447,0.725085 -0.5117424,1.304534 0.4859591,0.585546 0.6977726,0.563379 1.3339563,-0.139593 z m 13.1165389,0.135774 c -0.07896,-0.441407 -0.731929,-0.36521 -0.888216,0.10365 -0.08626,0.258786 0.05861,0.366453 0.403666,0.3 0.296019,-0.05701 0.514067,-0.23865 0.48455,-0.40365 z M 8.7000001,46.817705 c 0,-0.407178 -0.5293599,-0.674709 -0.7211145,-0.364443 -0.1792953,0.290106 0.080492,0.646736 0.4711146,0.646736 0.1374999,0 0.2499999,-0.127031 0.2499999,-0.282293 z M 21,46.182293 c 0,-0.155262 -0.2025,-0.282294 -0.45,-0.282294 -0.463923,0 -0.596011,0.353988 -0.258156,0.691845 C 20.531524,46.831523 21,46.560587 21,46.182293 Z m 1.5,0.08239 C 22.5,45.903027 24.168699,45 24.836996,45 c 0.326931,0 0.957405,-0.188319 1.401054,-0.418488 0.980067,-0.508464 0.497512,-0.94191 -0.6801,-0.610887 -0.444372,0.124914 -1.003443,0.193062 -1.242379,0.151446 -0.238936,-0.04162 -0.607919,0.161595 -0.819962,0.451581 -0.321715,0.439971 -0.510518,0.470301 -1.140571,0.183228 C 21.74135,44.477264 21.6,44.492588 21.6,44.838725 c 0,0.234225 0.144204,0.514986 0.320453,0.623913 0.176248,0.10893 0.247985,0.386895 0.159415,0.617706 -0.08857,0.230811 -0.03027,0.419655 0.129548,0.419655 0.159821,0 0.290584,-0.105894 0.290584,-0.235317 z M 12.6,45.575 c 0,-0.731115 -0.701032,-0.627771 -0.846997,0.12486 -0.05741,0.296028 0.09563,0.500139 0.375,0.500139 0.27829,0 0.471997,-0.2565 0.471997,-0.624999 z m 16.081251,-0.193752 c -0.304955,-0.304953 -0.556575,0.154167 -0.306366,0.559014 0.189011,0.305826 0.259673,0.306063 0.361291,0.0012 0.06948,-0.208437 0.04476,-0.460539 -0.05493,-0.560226 z M 4.0831726,44.228267 C 3.983611,43.968812 4.0256797,43.525721 4.176658,43.243613 4.3692583,42.883736 4.2908788,42.518198 3.9139699,42.018518 3.2002275,41.072291 2.5279532,41.37389 2.2685358,42.756704 c -0.2280357,1.215534 -0.00201,1.722801 0.4609943,1.034607 0.2502254,-0.371928 0.371332,-0.335187 0.7702798,0.233688 0.5486107,0.782283 0.8452099,0.88563 0.5833627,0.203268 z m 2.9668275,0.171732 c -0.1019757,-0.165 -0.3879102,-0.3 -0.6354102,-0.3 -0.2475,0 -0.3665655,0.135 -0.2645898,0.3 0.1019757,0.165 0.3879102,0.3 0.6354102,0.3 0.2475,0 0.3665655,-0.135 0.2645898,-0.3 z m 3.0939329,-0.375 c 0.07382,-0.387327 -0.09774,-0.525 -0.6542306,-0.525 -0.8200992,0 -1.2398484,0.414354 -0.9290994,0.917157 0.3015657,0.487944 1.470782,0.198354 1.58333,-0.392157 z M 19.5,43.049999 c 0,-0.249999 -0.266666,-0.45 -0.6,-0.45 -0.597673,0 -0.780337,0.319662 -0.4,0.699999 0.365379,0.365379 1,0.206724 1,-0.249999 z M 8.4000001,42.413267 c 0,-0.668157 -0.068383,-0.729981 -0.4536993,-0.410199 -0.3450912,0.286401 -0.3722055,0.474732 -0.1132665,0.786735 0.4791609,0.577353 0.5669658,0.519039 0.5669658,-0.376536 z m 2.2876929,-0.99516 c -0.198492,-1.241298 0.193879,-1.856535 0.798447,-1.251969 0.465801,0.465801 0.81386,0.416133 0.81386,-0.116139 0,-0.314286 -0.316667,-0.45 -1.05,-0.45 -0.5775,0 -1.05,0.120366 -1.05,0.267477 0,0.147114 -0.3374999,0.352185 -0.7499999,0.455715 -0.8164806,0.204924 -1.0318734,0.776808 -0.2925747,0.776808 0.2515839,0 0.5857425,0.3375 0.7425747,0.75 0.4649399,1.222887 1.0049559,0.926796 0.7876929,-0.431892 z m 7.559304,0.07823 c -0.128832,-0.668976 -0.662386,-0.683385 -0.789885,-0.02133 -0.06324,0.32838 0.0839,0.525 0.392888,0.525 0.301017,0 0.456103,-0.196755 0.396997,-0.503667 z M 20.286,40.964366 c 0.24483,-0.638019 -0.189308,-1.241568 -0.518906,-0.721395 -0.353763,0.558309 -0.331863,1.157028 0.04232,1.157028 0.170178,0 0.384641,-0.196035 0.476584,-0.435633 z M 27.3,40.632293 c 0,-0.07276 -0.210467,-0.132294 -0.467705,-0.132294 -0.257237,0 -0.382909,0.137202 -0.27927,0.304893 C 26.724266,41.081966 27.3,40.948937 27.3,40.632293 Z M 15.9,39.167705 c 0,-0.477789 -0.544307,-0.923397 -0.807021,-0.660684 -0.246791,0.246792 0.138456,1.092978 0.497606,1.092978 0.170178,0 0.309415,-0.194532 0.309415,-0.432294 z m 11.4,0 c 0,-0.237762 -0.146763,-0.522999 -0.326139,-0.633861 -0.423607,-0.261804 -1.001819,0.31641 -0.740016,0.740016 C 26.52791,39.749666 27.3,39.672791 27.3,39.167705 Z m -5.4,-0.335412 c 0,-0.257238 -0.135,-0.38427 -0.3,-0.282294 -0.165,0.101976 -0.3,0.312444 -0.3,0.467706 0,0.155262 0.135,0.282294 0.3,0.282294 0.165,0 0.3,-0.210468 0.3,-0.467706 z M 7.0061932,38.264324 c 0.4365939,-0.404622 0.7938069,-1.001181 0.7938069,-1.325688 0,-0.795246 -0.9585624,-2.43438 -1.425,-2.436741 -0.5687019,-0.003 -0.4496892,0.629931 0.2606829,1.386087 0.6237225,0.663921 0.6251334,0.689847 0.075,1.377987 -0.3083757,0.385731 -0.7714863,0.658692 -1.029135,0.606573 -0.2576484,-0.05212 -0.7173216,0.18024 -1.0214961,0.516351 -0.5464116,0.603777 -0.5404194,0.611106 0.4996452,0.611106 0.7015992,0 1.3174377,-0.245361 1.8464961,-0.735675 z m 2.1192708,0.553578 c 0.4043409,-0.15516 0.7123161,-1.317903 0.3490722,-1.317903 -0.5422542,0 -1.0745361,0.461724 -1.0745361,0.932097 0,0.627288 0.040308,0.648726 0.7254639,0.385806 z m 4.41222,-1.240833 c 0.812102,-0.21237 0.535305,-0.807 -0.428871,-0.921327 -0.614923,-0.07291 -0.779506,-0.242736 -0.726864,-0.75 0.05643,-0.543726 -0.08569,-0.655743 -0.831949,-0.655743 -0.651742,0 -0.867886,0.124128 -0.78358,0.45 0.06403,0.2475 0.09483,0.869772 0.06844,1.382826 -0.0509,0.989655 0.335822,1.479987 1.315137,1.667484 0.406899,0.0779 0.632318,-0.06771 0.700417,-0.452451 0.05523,-0.312027 0.364499,-0.636384 0.687267,-0.720789 z m -9.7876839,-0.07707 c -0.1019757,-0.165 -0.2449429,-0.3 -0.3177052,-0.3 -0.072762,0 -0.1322949,0.135 -0.1322949,0.3 0,0.165 0.1429674,0.3 0.3177052,0.3 0.1747377,0 0.2342706,-0.135 0.1322949,-0.3 z m 12.5804699,0.0074 c 0.423242,-0.160917 0.76953,-0.498417 0.76953,-0.75 0,-0.544632 -0.796655,-0.61746 -0.97283,-0.08893 -0.06756,0.202668 -0.438216,0.371418 -0.823687,0.375 -0.385471,0.0036 -0.757697,0.175257 -0.827169,0.381507 -0.152037,0.451368 0.775333,0.492594 1.854156,0.08243 z m 2.80953,-0.0674 c 0.528899,-0.528897 0.440013,-0.84 -0.24,-0.84 -0.4,0 -0.6,0.200001 -0.6,0.6 0,0.680013 0.311102,0.768897 0.84,0.24 z M 5.8623358,36.58004 c 0.2761032,-0.446745 -0.044017,-0.689637 -0.6184119,-0.469221 -0.2650743,0.101718 -0.3979293,0.320895 -0.2952333,0.487062 0.2431725,0.393462 0.6645315,0.385233 0.9136452,-0.01785 z M 3.7371886,35.679269 C 3.4800165,35.263157 3.3,35.340746 3.3,35.867705 c 0,0.257238 0.137202,0.382908 0.3048937,0.27927 0.1676913,-0.103638 0.2272242,-0.314106 0.1322949,-0.467706 z M 18.428992,35.066006 C 18.207998,34.70843 16.8,34.724927 16.8,35.085092 c 0,0.501372 1.008678,0.898179 1.418524,0.558036 0.206179,-0.171111 0.300889,-0.430818 0.210468,-0.577122 z M 23.7,35.6 c 0,-0.564264 -0.288699,-0.785508 -0.779329,-0.597234 -0.638118,0.244869 -0.502823,0.997233 0.179329,0.997233 0.33,0 0.6,-0.18 0.6,-0.399999 z M 9.6000001,34.632293 c 0,-0.830313 -0.6275055,-0.972108 -1.207782,-0.272916 -0.3152466,0.379848 -0.2832267,0.531051 0.1849581,0.873396 0.7111722,0.520023 1.0228239,0.337056 1.0228239,-0.60048 z m 11.4973969,0.570309 c 0.22711,-0.227109 -0.340726,-1.002603 -0.73413,-1.002603 -0.144797,0 -0.263267,0.27 -0.263267,0.6 0,0.576498 0.586685,0.813315 0.997397,0.402603 z m -7.108311,-1.077603 c -0.09949,-0.37125 -0.182736,-0.84375 -0.184989,-1.05 -0.0026,-0.237954 -0.450681,-0.375 -1.226094,-0.375 -0.979982,0 -1.202787,0.09917 -1.125,0.500727 0.100732,0.520005 1.591181,1.539066 2.306986,1.577346 0.281469,0.01506 0.353285,-0.189669 0.229097,-0.653073 z m -8.4390859,-0.225 c 0,-0.2475 -0.30375,-0.49314 -0.675,-0.545865 -0.5195085,-0.07378 -0.675,0.05196 -0.675,0.545865 0,0.493902 0.1554915,0.619647 0.675,0.545865 0.37125,-0.05273 0.675,-0.298365 0.675,-0.545865 z m 5.4846909,-0.25365 c 0.08597,-0.258189 -0.05828,-0.3663 -0.400281,-0.3 -0.294079,0.05701 -0.595175,0.285294 -0.6691005,0.5073 -0.085973,0.258189 0.058276,0.3663 0.4002805,0.3 0.29408,-0.05701 0.595175,-0.285294 0.669101,-0.5073 z m 5.897648,-0.48681 C 16.176057,32.587517 15.6,32.583392 15.6,33.149999 c 0,0.305988 0.306371,0.45 0.957339,0.45 0.906175,0 0.926217,-0.02355 0.375,-0.44046 z m 3.046839,-0.405549 c 0.02768,-0.801234 -0.02468,-0.83589 -1.018691,-0.674316 -1.253119,0.203688 -1.383873,0.614295 -0.360487,1.132044 1.105375,0.559227 1.346816,0.479097 1.379178,-0.457728 z M 7.5000001,33.05 c 0,-0.4227 -0.3379176,-0.61662 -0.7793298,-0.447234 -0.6260829,0.240252 -0.5085462,0.697233 0.1793298,0.697233 0.33,0 0.6,-0.1125 0.6,-0.249999 z m -2.16,-0.710001 c 0.456141,-0.456141 0.4669824,-1.14 0.018072,-1.14 -0.3490653,0 -1.1312883,0.868356 -1.148532,1.275 -0.014952,0.352641 0.7320216,0.263439 1.1304591,-0.135 z m 4.56,-0.422097 c 0,-0.623529 -0.5073501,-0.504597 -0.6810552,0.159651 -0.1059531,0.405165 -0.026853,0.529902 0.2650107,0.417903 C 9.71278,32.407649 9.9000001,32.14775 9.9000001,31.917902 Z M 15.3,31.817705 c 0,-0.353958 -0.585106,-0.7326 -0.8,-0.517707 -0.214893,0.214896 0.163747,0.800001 0.517705,0.800001 0.155263,0 0.282295,-0.127032 0.282295,-0.282294 z M 9.5130754,30.599999 c 0.086297,-0.33 0.2761584,-0.6 0.421914,-0.6 0.1457556,0 0.2650106,0.27 0.2650106,0.6 0,0.622665 0.724069,0.827367 1.051659,0.297315 0.292877,-0.473883 -0.09849,-1.29782 -0.888621,-1.870797 -1.0530524,-0.763639 -1.6630379,-0.394803 -1.6630379,1.005579 0,1.223283 0.5425851,1.602258 0.8130753,0.567903 z m 11.4869246,0 c 0,-0.165 -0.135,-0.3 -0.3,-0.3 -0.165,0 -0.3,0.135 -0.3,0.3 0,0.165 0.135,0.3 0.3,0.3 0.165,0 0.3,-0.135 0.3,-0.3 z M 17.987127,30.095411 C 18.183458,29.92408 17.210046,28.386681 16.823698,28.257898 16.645664,28.198554 16.5,28.502986 16.5,28.934414 c 0,0.431429 -0.2025,0.862122 -0.45,0.957097 -0.880217,0.337772 -0.431903,0.667973 0.675,0.497165 0.61875,-0.09548 1.186707,-0.227451 1.262127,-0.293265 z M 12.6,29.607338 c 0,-0.654635 -0.782503,-1.515366 -1.163547,-1.279868 -0.250764,0.154981 -0.1543,0.430373 0.329488,0.94065 C 12.565076,30.111011 12.6,30.125213 12.6,29.607338 Z M 5.8469758,29.395105 C 5.7433366,29.227414 5.5328695,29.167881 5.3792707,29.262811 c -0.4161132,0.257172 -0.3385233,0.437188 0.1884345,0.437188 0.2572377,0 0.3829095,-0.137202 0.2792706,-0.304894 z M 6.7513096,28.49788 c 0.102696,-0.166165 -0.030159,-0.385343 -0.2952333,-0.487061 -0.5743947,-0.220416 -0.8945151,0.02248 -0.6184119,0.469221 0.2491137,0.403074 0.6704727,0.411302 0.9136452,0.01784 z m 8.9810294,-0.457422 c 0.469152,-0.354849 0.490395,-0.440459 0.109292,-0.440459 -0.868684,0 -2.189754,-0.881941 -2.351658,-1.569957 -0.100691,-0.427893 -0.684784,-0.948757 -1.575284,-1.404759 -1.683242,-0.861945 -2.0360255,-0.702925 -0.976602,0.440212 0.491327,0.53015 0.708101,1.031442 0.59717,1.380956 -0.128644,0.405322 0.0465,0.634617 0.670297,0.87754 0.464446,0.180866 1.181946,0.507117 1.594446,0.725 0.982867,0.519154 1.236154,0.518035 1.932339,-0.0085 z m -5.727538,-0.580851 c 0.09295,-0.242216 0.06719,-0.503309 -0.057227,-0.580205 -0.3740121,-0.231153 -1.0401324,0.328129 -0.8183034,0.687056 0.2865786,0.463694 0.6747717,0.416318 0.8755304,-0.106851 z M 7.8000001,27.017704 c 0,-0.320262 -0.146763,-0.672999 -0.3261396,-0.78386 -0.4587264,-0.283509 -0.9896226,0.331769 -0.7731105,0.89599 0.2571591,0.670146 1.0992501,0.584248 1.0992501,-0.11213 z M 17.4,26.584291 c 0,-0.368969 -0.838256,-1.646035 -0.984471,-1.499821 -0.227025,0.227026 0.402647,1.615529 0.732626,1.615529 0.138515,0 0.251845,-0.05207 0.251845,-0.115708 z M 9.9000001,24.899999 c 0,-0.165 -0.2104674,-0.3 -0.4677051,-0.3 -0.2572377,0 -0.3842706,0.135 -0.2822949,0.3 0.1019757,0.165 0.3124428,0.3 0.4677051,0.3 0.1552623,0 0.2822949,-0.135 0.2822949,-0.3 z m 5.6999999,-0.9 c 0,-0.165 -0.135,-0.3 -0.3,-0.3 -0.165,0 -0.3,0.135 -0.3,0.3 0,0.165 0.135,0.3 0.3,0.3 0.165,0 0.3,-0.135 0.3,-0.3 z m -3.75,-0.904108 c 0,-0.643052 -0.8717,-0.550171 -0.998135,0.106352 -0.07721,0.400919 0.04497,0.523101 0.445891,0.445892 C 11.60149,23.589641 11.85,23.341131 11.85,23.095891 Z m 5.55,0.314663 c 0,-0.159194 -0.27,-0.433944 -0.6,-0.610555 -0.46414,-0.2484 -0.6,-0.228147 -0.6,0.08945 0,0.225805 0.09,0.500555 0.2,0.610555 0.302097,0.302097 1,0.239673 1,-0.08944 z M 9.6639925,22.499999 c 0.085172,-0.580315 0.0021,-0.9 -0.2338536,-0.9 -0.3837324,0 -0.7301388,0.652134 -0.7301388,1.374536 0,0.827294 0.8331159,0.417183 0.9639924,-0.474536 z m 3.4818725,-0.548498 c 0.07205,-0.489681 -0.05835,-0.651502 -0.525,-0.651502 C 12.2,21.299999 12,21.106721 12,20.699999 c 0,-0.333333 -0.2,-0.6 -0.45,-0.6 -0.25,0 -0.45,0.266667 -0.45,0.6 0,0.33 0.135,0.6 0.3,0.6 0.165,0 0.3,0.1755 0.3,0.39 0,0.514029 0.645126,1.144561 1.03875,1.015252 0.171188,-0.05624 0.35439,-0.395424 0.407115,-0.75375 z M 8.1938605,21.57386 c -0.3983463,-0.398347 -0.8397927,0.147311 -0.5277051,0.652279 0.1451469,0.234853 0.2928522,0.234853 0.5277051,0 0.2348529,-0.234853 0.2348529,-0.417426 0,-0.652279 z m 1.8838565,-1.620236 c -0.103031,-0.410506 -0.02153,-1.011867 0.181121,-1.336356 0.202647,-0.32449 0.281291,-0.677139 0.174765,-0.783666 -0.348553,-0.348552 -0.8336029,0.186302 -0.8336029,0.919196 0,0.394563 -0.23625,0.856625 -0.525,1.026806 -0.4578873,0.269863 -0.4674747,0.347882 -0.075,0.610313 0.8272086,0.553117 1.2800329,0.3698 1.0777169,-0.436293 z M 12.9,18.740584 c 0,-1.225634 -0.686282,-1.682874 -1.421844,-0.947312 -0.43376,0.43376 -0.404481,0.507596 0.334854,0.84446 0.469069,0.213722 0.746103,0.536103 0.657997,0.765703 -0.0837,0.218111 -0.02141,0.396564 0.138409,0.396564 0.159821,0 0.290584,-0.476737 0.290584,-1.059415 z m 0.834786,-2.667259 c 0.286875,-0.629622 0.234616,-0.789891 -0.39129,-1.2 C 12.447344,14.286143 12.3,14.28285 12.3,14.85 c 0,0.2475 -0.135,0.45 -0.3,0.45 -0.481035,0 -0.346164,0.64881 0.225,1.082386 0.767767,0.582818 1.137945,0.507041 1.509786,-0.309061 z M 656.70001,92.821659 c -3.67944,-0.442197 -7.13586,-1.159035 -8.76456,-1.817718 -7.88706,-3.189654 -17.27151,-9.656886 -24.5298,-16.904525 -8.54916,-8.53662 -13.76439,-18.080811 -13.08189,-23.940678 0.19641,-1.686621 3.17322,-12.102458 4.67418,-16.354988 0.49119,-1.391592 1.79463,-4.391829 2.89659,-6.667195 3.222,-6.652935 2.61501,-6.205441 20.49186,-15.107176 16.67835,-8.3049454 19.68297,-9.5970334 24.61362,-10.584685 1.8975,-0.3800864 3.5175,-0.77317825 3.6,-0.87353734 0.51633,-0.62810434 10.71252,-0.55771905 10.32378,0.0712661 -0.0875,0.14166747 0.15252,0.25939982 0.53352,0.2616275 1.03968,0.006079 8.05746,2.47177104 9.58806,3.36876714 6.86001,4.0202371 11.44413,10.5933826 14.95941,21.4502856 1.73025,5.343882 2.50122,8.298081 3.03429,11.626896 0.21141,1.32 0.51678,2.491029 0.6786,2.60229 0.45777,0.314691 0.40608,12.923129 -0.0536,13.076351 -0.20025,0.06675 -0.36408,0.3858 -0.36408,0.709005 0,1.000722 -0.91458,5.076576 -1.70619,7.603617 -2.19237,6.998724 -8.85525,17.277197 -14.60481,22.530059 -5.32263,4.862814 -9.21198,6.560172 -18.939,8.265183 -3.1515,0.552414 -11.0721,0.958917 -13.35,0.685155 z M 684.1987,63.824998 c -0.0832,-0.20625 -0.15132,-0.0375 -0.15132,0.375 0,0.4125 0.0681,0.58125 0.15132,0.375 0.0832,-0.20625 0.0832,-0.54375 0,-0.75 z m 16.90131,-0.992706 c 0,-0.07276 -0.135,-0.132294 -0.3,-0.132294 -0.165,0 -0.3,0.142968 -0.3,0.317706 0,0.174738 0.135,0.23427 0.3,0.132294 0.165,-0.101976 0.3,-0.244944 0.3,-0.317706 z m -78.3,-0.132294 c 0,-0.165 -0.135,-0.3 -0.3,-0.3 -0.165,0 -0.3,0.135 -0.3,0.3 0,0.165 0.135,0.3 0.3,0.3 0.165,0 0.3,-0.135 0.3,-0.3 z m 58.58403,-0.888969 c 0.1581,-0.604488 -0.43293,-1.362132 -0.78663,-1.008429 -0.10857,0.10857 -0.1974,0.512397 -0.1974,0.897399 0,0.85242 0.76752,0.939021 0.98403,0.11103 z m -53.48403,-0.358755 c 1.93281,-0.569331 4.03278,-1.74438 6.11685,-3.422703 1.13679,-0.915456 3.43179,-2.321058 5.1,-3.123558 3.36045,-1.616541 5.97597,-2.425893 13.53315,-4.187766 7.52052,-1.753323 11.36613,-3.2406 13.60194,-5.260511 1.68477,-1.522104 5.85021,-7.053888 9.94542,-13.207737 2.9706,-4.463892 3.93435,-5.637173 7.7268,-9.40679 3.14718,-3.12821 4.52952,-4.729099 5.05143,-5.85 0.69621,-1.495222 0.94518,-3.630222 0.49482,-4.243209 -0.44064,-0.599773 -3.62454,-3.1500003 -3.9327,-3.1500003 -0.17412,0 -0.45312,-0.2550981 -0.61998,-0.5668848 -0.24861,-0.4645035 -0.18279,-0.6009039 0.36444,-0.7552458 l 0.66783,-0.188361 -0.75,-0.6296825 c -0.67527,-0.5669331 -0.76017,-0.5786892 -0.85215,-0.1179711 -0.0901,0.4510725 -0.18783,0.4312395 -0.825,-0.1673658 -0.39756,-0.3734925 -0.72285,-0.8724885 -0.72285,-1.1088798 0,-0.2755911 -0.17703,-0.3618717 -0.49338,-0.2404728 -0.27138,0.1041315 -0.71013,0.00676 -0.975,-0.216369 -0.88899,-0.7488588 -2.76063,-1.7087672 -3.33177,-1.7087672 -0.31119,0 -0.76518,-0.2846352 -1.00887,-0.6325227 -0.24366,-0.3478873 -0.58881,-0.54242 -0.76701,-0.4322947 -0.17817,0.1101252 -0.47697,0.1056594 -0.66399,-0.00992 -1.0155,-0.6276149 -8.56515,-0.6349043 -11.05998,-0.010679 -3.95769,0.9902485 -5.13405,1.3680829 -5.93265,1.9055022 -0.44955,0.3025134 -1.69485,0.937098 -2.76735,1.4101887 -1.0725,0.4730904 -2.5575,1.1758071 -3.3,1.561593 -0.7425,0.3857855 -1.8225,0.9208808 -2.4,1.1891 -0.5775,0.2682192 -1.40835,0.7422285 -1.84632,1.0533537 C 647.81572,10.245442 647.2585,10.5 647.01544,10.5 c -0.24309,0 -0.61002,0.2025 -0.81543,0.45 -0.20541,0.2475 -0.61041,0.45 -0.9,0.45 -0.28959,0 -0.69459,0.2025 -0.9,0.45 -0.20541,0.2475 -0.55944,0.45 -0.78672,0.45 -0.22731,0 -0.64953,0.212331 -0.93828,0.471848 -1.43259,1.28755 -2.41338,1.968968 -3.3,2.292689 -0.53625,0.195798 -0.975,0.460409 -0.975,0.588025 0,0.314209 -1.30029,0.964166 -4.73745,2.368062 -2.99193,1.222039 -4.29018,1.522858 -3.28755,0.761762 0.64026,-0.486018 0.67266,-0.782387 0.0856,-0.782387 -0.48909,0 -1.14669,1.013884 -0.84999,1.310555 0.10419,0.104195 0.0319,0.189445 -0.16056,0.189445 -0.19251,0 -0.35001,-0.144898 -0.35001,-0.321997 0,-0.640922 -1.0281,-0.106032 -1.19853,0.623573 -0.23154,0.991088 -2.98473,2.675769 -4.04244,2.473576 -0.58719,-0.11225 -0.81132,0.01221 -1.0182,0.565459 -0.16323,0.436436 -0.15264,0.781183 0.0276,0.895978 0.16512,0.105224 0.048,0.36686 -0.26859,0.6 -0.79578,0.586012 -2.38062,2.688229 -2.62989,3.488411 -0.11565,0.37125 -0.33618,0.675 -0.49005,0.675 -0.15387,0 -0.27978,0.215421 -0.27978,0.478712 0,0.263292 -0.18867,0.837042 -0.41925,1.275001 -0.23061,0.437958 -0.59445,1.384383 -0.80853,2.103165 -0.21411,0.718785 -0.57243,1.37715 -0.79623,1.46304 -0.27393,0.105114 -0.34716,0.428364 -0.22404,0.988908 0.13998,0.637434 0.0346,0.936615 -0.44937,1.275603 -0.47232,0.330816 -0.58455,0.633006 -0.44361,1.194495 0.1203,0.479334 -0.0282,1.176843 -0.4101,1.925313 -0.32934,0.645519 -0.69258,1.673643 -0.80721,2.284716 -0.12156,0.647964 -0.38208,1.111047 -0.62505,1.111047 -0.44919,0 -0.58572,1.084773 -0.15732,1.250001 0.35577,0.137211 0.63048,5.949998 0.28119,5.949998 -0.15174,0 -0.18579,0.145788 -0.0757,0.323976 0.11013,0.178185 -0.0844,0.523341 -0.4323,0.76701 -0.63264,0.443112 -0.87207,1.309014 -0.36198,1.309014 0.1488,0 0.53142,-0.412038 0.85029,-0.915642 0.71736,-1.133001 1.02525,-0.851604 1.85616,1.696407 0.56925,1.745682 0.56925,1.775865 -3e-5,2.267322 -0.69351,0.598701 -0.74985,1.151913 -0.1173,1.151913 0.25281,0 0.57093,-0.30078 0.70692,-0.6684 0.23754,-0.642093 0.26805,-0.628197 0.77553,0.353112 0.29052,0.561834 0.99663,1.687899 1.56909,2.502366 0.74934,1.066071 0.94956,1.572171 0.71484,1.806885 -0.40803,0.408039 -0.4209,0.806037 -0.0261,0.806037 0.165,0 0.3,-0.2025 0.3,-0.45 0,-0.665715 0.82755,-0.545925 1.21374,0.175695 0.18417,0.34413 0.39633,0.564225 0.47148,0.489099 0.0751,-0.07513 0.63792,0.04768 1.25067,0.272901 1.14924,0.422409 2.92218,0.3366 4.86411,-0.235419 z m 73.8,0.03002 c 0,-0.174738 -0.135,-0.23427 -0.3,-0.132294 -0.165,0.101976 -0.3,0.244944 -0.3,0.317706 0,0.07276 0.135,0.132294 0.3,0.132294 0.165,0 0.3,-0.142968 0.3,-0.317706 z m -82.671,-1.148301 c 0.0904,-0.146304 -0.0246,-0.422862 -0.2556,-0.614568 -0.46761,-0.388089 -0.94647,0.05786 -0.6234,0.580575 0.22956,0.371436 0.66015,0.388089 0.879,0.03399 z m 79.371,-0.408993 c 0,-0.351327 -0.43704,-0.263922 -0.5625,0.1125 -0.0619,0.185625 0.0394,0.286875 0.225,0.225 0.18564,-0.06188 0.3375,-0.21375 0.3375,-0.3375 z m -83.52,-2.456091 c 0,-0.965511 -0.0264,-0.993246 -0.41676,-0.436086 -0.2292,0.327255 -0.34146,0.791244 -0.24942,1.031091 0.30099,0.784311 0.66618,0.458124 0.66618,-0.595005 z m 82.77132,0.728973 c 0.10269,-0.166167 -0.0302,-0.385344 -0.29523,-0.487062 -0.57441,-0.220416 -0.89454,0.02247 -0.61842,0.469221 0.24912,0.403074 0.67047,0.411303 0.91365,0.01785 z M 679.50001,58.0474 c 0,-0.271854 -1.59138,-1.947402 -1.84959,-1.947402 -0.49239,0 -0.23709,0.641001 0.54339,1.364325 0.73995,0.685767 1.3062,0.938532 1.3062,0.583077 z m -5.7,-5.229696 c 0,-0.155262 -0.135,-0.36573 -0.3,-0.467706 -0.165,-0.101976 -0.3,0.02505 -0.3,0.282294 0,0.257238 0.135,0.467706 0.3,0.467706 0.165,0 0.3,-0.127032 0.3,-0.282294 z m 4.34697,-1.522599 c -0.10362,-0.167691 -0.3141,-0.227226 -0.4677,-0.132294 -0.4161,0.257169 -0.33852,0.437187 0.18843,0.437187 0.25725,0 0.38292,-0.137202 0.27927,-0.304893 z m 16.68417,-0.683967 c -0.38505,-0.385047 -0.77553,-0.08745 -0.49044,0.373794 0.1104,0.178668 0.33819,0.239913 0.50616,0.136098 0.2049,-0.126636 0.19974,-0.294438 -0.0156,-0.509892 z M 613.73563,50.13721 c -0.13365,-0.693945 -0.87402,-0.603093 -1.1493,0.141033 -0.20274,0.548106 -0.1383,0.610254 0.50535,0.487212 0.48,-0.09176 0.705,-0.311256 0.64395,-0.628245 z m 88.25496,-0.977238 c 0.0174,-0.352383 -1.63713,-0.508275 -1.84389,-0.173727 -0.11265,0.182283 -0.0735,0.576885 0.0871,0.876894 0.27957,0.522384 0.32274,0.523068 1.01964,0.01617 0.40026,-0.291117 0.73197,-0.614817 0.73716,-0.719331 z m -13.19058,0.32232 c 0,-0.155262 -0.2025,-0.282294 -0.45,-0.282294 -0.46392,0 -0.59601,0.353988 -0.25815,0.691845 0.23967,0.239679 0.70815,-0.03126 0.70815,-0.409551 z m 3,-0.564588 c 0,-0.405111 -0.54687,-0.685947 -0.90489,-0.464682 -0.1677,0.103638 -0.22722,0.314106 -0.1323,0.467706 0.22521,0.364383 1.03719,0.362016 1.03719,-0.003 z m -9.3,-0.635412 c 0,-0.155262 -0.135,-0.282294 -0.3,-0.282294 -0.165,0 -0.3,0.210468 -0.3,0.467706 0,0.257238 0.135,0.38427 0.3,0.282294 0.165,-0.101976 0.3,-0.312444 0.3,-0.467706 z m 6.14235,-0.474987 c -0.6762,-0.494457 -0.96231,-0.283812 -0.45111,0.332139 0.20721,0.249672 0.5169,0.367326 0.6882,0.261459 0.1908,-0.117924 0.0989,-0.347874 -0.23709,-0.593598 z m 10.95765,0.333279 c 0,-0.479001 -0.79728,-0.943299 -1.10001,-0.640587 -0.0958,0.09577 -0.0942,0.382446 0.004,0.637062 0.23007,0.599556 1.09647,0.602337 1.09647,0.0035 z m 2.85,-0.740586 c -0.10197,-0.165 -0.31245,-0.3 -0.4677,-0.3 -0.15528,0 -0.2823,0.135 -0.2823,0.3 0,0.165 0.21048,0.3 0.4677,0.3 0.25725,0 0.38427,-0.135 0.2823,-0.3 z m -12.15,-0.882293 c 0,-0.405111 -0.54687,-0.685947 -0.90489,-0.464682 -0.1677,0.103638 -0.22722,0.314106 -0.1323,0.467706 0.22521,0.364383 1.03719,0.362016 1.03719,-0.003 z m 13.49682,-0.163887 c 0.4809,-0.57945 0.17349,-1.363164 -0.51174,-1.304535 -1.21668,0.1041 -1.88508,-0.07293 -1.88508,-0.499284 0,-0.2475 -0.16875,-0.447933 -0.375,-0.445407 -0.68709,0.0084 -1.18533,0.510717 -1.07265,1.081356 0.0811,0.410802 0.37122,0.564051 1.0677,0.564051 0.52596,0 1.19304,0.23625 1.48239,0.525 0.64161,0.640239 0.81948,0.651069 1.29438,0.07882 z m -5.69682,-0.528819 c 0,-0.351327 -0.43704,-0.263922 -0.5625,0.1125 -0.0619,0.185625 0.0394,0.286875 0.225,0.225 0.18564,-0.06187 0.3375,-0.21375 0.3375,-0.3375 z m -12,-0.542706 c 0,-0.155262 -0.2025,-0.282294 -0.45,-0.282294 -0.46392,0 -0.59601,0.353988 -0.25815,0.691845 0.23967,0.239679 0.70815,-0.03126 0.70815,-0.409551 z m -1.97988,-0.101949 c -0.0886,-0.230811 -0.0168,-0.508776 0.15942,-0.617706 0.17625,-0.108927 0.32046,-0.389688 0.32046,-0.623913 0,-0.346137 -0.14136,-0.361461 -0.75504,-0.08185 -0.63006,0.287073 -0.81885,0.256743 -1.14057,-0.183228 -0.21204,-0.289986 -0.58101,-0.493197 -0.81996,-0.451581 -0.23895,0.04162 -0.798,-0.02652 -1.24239,-0.151446 -1.17759,-0.331023 -1.66017,0.102423 -0.6801,0.610887 0.44367,0.230169 1.07412,0.418488 1.40106,0.418488 0.66831,0 2.337,0.903027 2.337,1.264683 0,0.129423 0.13077,0.235317 0.29058,0.235317 0.15984,0 0.21813,-0.188844 0.12954,-0.419655 z m -6.12012,-0.498051 c 0,-0.155262 -0.135,-0.282294 -0.3,-0.282294 -0.165,0 -0.3,0.210468 -0.3,0.467706 0,0.257238 0.135,0.38427 0.3,0.282294 0.165,-0.101976 0.3,-0.312444 0.3,-0.467706 z M 694.447,44.79986 c -0.14595,-0.752631 -0.84699,-0.855975 -0.84699,-0.12486 0,0.368499 0.19371,0.624999 0.47199,0.624999 0.27939,0 0.43242,-0.204111 0.375,-0.500139 z m 3.20301,-1.599861 c 0,-0.267897 -0.33387,-0.488415 -0.825,-0.544926 -0.79779,-0.0918 -1.13478,0.435156 -0.61236,0.957582 0.36648,0.366468 1.43736,0.05903 1.43736,-0.412656 z m 2.4,0.3 c 0.10197,-0.165 -0.0171,-0.3 -0.2646,-0.3 -0.2475,0 -0.53343,0.135 -0.6354,0.3 -0.10197,0.165 0.0171,0.3 0.2646,0.3 0.2475,0 0.53343,-0.135 0.6354,-0.3 z m 3.43149,-0.608688 c 0.4503,0.695127 0.6768,0.174414 0.44997,-1.034607 -0.25941,-1.382814 -0.93168,-1.684413 -1.64544,-0.738186 -0.37689,0.49968 -0.45528,0.865218 -0.26268,1.225095 0.15099,0.282108 0.19494,0.758949 0.0976,1.059654 -0.12567,0.388539 0.004,0.329727 0.44889,-0.203268 0.52296,-0.626865 0.67263,-0.677544 0.91161,-0.308688 z m -15.65634,-0.816312 c 0.0732,-0.219954 -0.13356,-0.375 -0.50016,-0.375 -0.36849,0 -0.62499,0.193707 -0.62499,0.471996 0,0.551364 0.93612,0.470661 1.12515,-0.097 z m 10.54182,-0.185196 c 0.25893,-0.312003 0.23181,-0.500334 -0.11328,-0.786735 -0.38532,-0.319782 -0.45369,-0.257958 -0.45369,0.410199 0,0.895575 0.0878,0.953889 0.56697,0.376536 z M 696.24589,40.8515 c 0.0627,-0.425964 0.30906,-0.651501 0.71172,-0.651501 0.51342,0 0.55374,-0.07485 0.2424,-0.45 -0.20541,-0.2475 -0.55944,-0.45 -0.78672,-0.45 -0.22731,0 -0.41328,-0.135 -0.41328,-0.3 0,-0.165 -0.4725,-0.3 -1.05,-0.3 -0.7644,0 -1.05,0.13113 -1.05,0.482097 0,0.336978 0.15804,0.420591 0.525,0.277773 1.03191,-0.401607 1.12509,-0.310971 1.02606,0.998109 -0.0745,0.984825 0,1.275495 0.3,1.176501 0.21942,-0.07231 0.44208,-0.424653 0.49482,-0.782979 z M 688.747,40.596332 c -0.12882,-0.668976 -0.66237,-0.683385 -0.78987,-0.02133 -0.0632,0.32838 0.0839,0.525 0.39288,0.525 0.30102,0 0.45609,-0.196755 0.39699,-0.503667 z m -2.05158,-0.471333 c -0.003,-0.20625 -0.12066,-0.558162 -0.2625,-0.782028 -0.32961,-0.520173 -0.76374,0.08338 -0.51891,0.721395 0.2046,0.533166 0.78774,0.578415 0.78141,0.06063 z m -6.89541,-0.392706 c 0,-0.07276 -0.21048,-0.132294 -0.4677,-0.132294 -0.25725,0 -0.38292,0.137202 -0.27927,0.304893 0.17124,0.277074 0.74697,0.144045 0.74697,-0.172599 z m 0.15,-1.636404 c 0,-0.64305 -0.87171,-0.55017 -0.99813,0.106353 -0.0772,0.40092 0.045,0.523101 0.44589,0.445893 0.30372,-0.05849 0.55224,-0.307005 0.55224,-0.552246 z m 11.20365,-0.130299 c 0.0663,-0.342006 -0.0418,-0.486255 -0.3,-0.400281 -0.222,0.07393 -0.4503,0.375021 -0.5073,0.669099 -0.0663,0.342006 0.0418,0.486255 0.3,0.400281 0.222,-0.07393 0.4503,-0.375021 0.5073,-0.669099 z m -6.25365,0.152115 c 0,-0.155262 -0.135,-0.36573 -0.3,-0.467706 -0.165,-0.101976 -0.3,0.02505 -0.3,0.282294 0,0.257238 0.135,0.467706 0.3,0.467706 0.165,0 0.3,-0.127032 0.3,-0.282294 z m 10.38528,-1.101516 c 0.0987,-0.393168 0.10791,-0.9012 0.0204,-1.128963 -0.0874,-0.227763 -0.008,-0.565563 0.17763,-0.750669 0.48129,-0.481287 -0.13338,-1.013193 -1.02384,-0.885987 -0.52545,0.07506 -0.69192,0.271287 -0.64155,0.756144 0.0526,0.506217 -0.11229,0.676158 -0.72684,0.749028 -0.97812,0.115977 -1.23645,0.710148 -0.40347,0.927975 0.34824,0.09106 0.61227,0.408564 0.61227,0.736239 0,0.903408 1.74636,0.548235 1.98528,-0.403767 z m 2.51472,0.48381 c 0,-0.33 -0.0565,-0.6 -0.12546,-0.6 -0.069,0 -0.339,-0.08194 -0.6,-0.182097 -0.33639,-0.129078 -0.47454,-0.0053 -0.47454,0.425001 0,0.545343 0.33498,0.866043 0.975,0.933411 0.12375,0.01302 0.225,-0.246315 0.225,-0.576315 z m 3.73995,-0.0111 c -0.30417,-0.336111 -0.76386,-0.568467 -1.0215,-0.516351 -0.25764,0.05212 -0.72075,-0.220842 -1.02912,-0.606573 -0.55014,-0.68814 -0.54873,-0.714066 0.075,-1.377987 0.71037,-0.756156 0.82938,-1.388964 0.26067,-1.386087 -0.46644,0.0024 -1.425,1.641495 -1.425,2.436741 0,0.943251 1.43214,2.061363 2.6403,2.061363 1.04007,0 1.04607,-0.0073 0.49965,-0.611106 z m -13.63995,-1.1889 c 0,-0.399999 -0.20001,-0.6 -0.6,-0.6 -0.68001,0 -0.7689,0.311103 -0.24,0.84 0.5289,0.528897 0.84,0.440013 0.84,-0.24 z m 3.82368,0.225 c -0.0695,-0.20625 -0.44169,-0.377928 -0.82716,-0.381507 -0.38547,-0.0036 -0.75612,-0.172332 -0.82368,-0.375 -0.17658,-0.529731 -0.97284,-0.455106 -0.97284,0.09117 0,0.508683 0.97008,0.99198 2.04999,1.021317 0.43293,0.01176 0.65181,-0.124056 0.57369,-0.355983 z m 11.17632,0.05729 c 0,-0.174738 -0.135,-0.23427 -0.3,-0.132294 -0.165,0.101976 -0.3,0.244944 -0.3,0.317706 0,0.07276 0.135,0.132294 0.3,0.132294 0.165,0 0.3,-0.142968 0.3,-0.317706 z m -1.64868,-0.884412 c 0.10269,-0.166167 -0.0302,-0.385344 -0.29523,-0.487062 -0.57441,-0.220416 -0.89454,0.02247 -0.61842,0.469221 0.24912,0.403074 0.67047,0.411303 0.91365,0.01785 z m 1.64868,-0.765588 c 0,-0.257238 -0.13719,-0.382908 -0.30489,-0.27927 -0.1677,0.103638 -0.22722,0.314106 -0.1323,0.467706 0.25716,0.416112 0.43719,0.338523 0.43719,-0.188436 z m -19.2,-0.250197 c 0,-0.452529 -0.72873,-0.853371 -1.02066,-0.561426 -0.39507,0.39507 -0.14412,0.979329 0.42066,0.979329 0.33,0 0.6,-0.188058 0.6,-0.417903 z m 5.7,-0.492651 c 0,-0.324363 -1.29072,-0.398739 -1.59741,-0.09205 -0.10857,0.10857 -0.0494,0.375732 0.13152,0.593697 0.35622,0.429219 1.46589,0.04947 1.46589,-0.501648 z m 8.66775,-0.197307 c 0.0648,-0.0427 -0.053,-0.283401 -0.26172,-0.534888 -0.56784,-0.684192 -1.20603,-0.555735 -1.20603,0.242748 0,0.930186 0.29046,1.173993 0.8724,0.732288 0.26268,-0.199377 0.53058,-0.397446 0.59535,-0.440148 z m -11.96775,-0.09214 c 0,-0.33 -0.11847,-0.6 -0.26328,-0.6 -0.39339,0 -0.96123,0.775494 -0.73413,1.002603 0.41073,0.410712 0.99741,0.173895 0.99741,-0.402603 z m 7.65,-0.5712 c 0.495,-0.290043 0.94365,-0.752676 0.99699,-1.028073 0.0778,-0.401559 -0.14502,-0.500727 -1.125,-0.500727 -0.77541,0 -1.22349,0.137046 -1.2261,0.375 -0.003,0.20625 -0.0855,0.67875 -0.18498,1.05 -0.22029,0.822006 0.25827,0.854283 1.53909,0.1038 z m 8.25,-0.3288 c 0,-0.393918 -0.20001,-0.6 -0.5823,-0.6 -0.65928,0 -1.04469,0.451818 -0.7677,0.9 0.34578,0.559479 1.35,0.336318 1.35,-0.3 z m -5.7,-0.0094 c 0,-0.359151 -0.84618,-0.744399 -1.09299,-0.497607 -0.26271,0.262713 0.18291,0.807021 0.66069,0.807021 0.23778,0 0.4323,-0.139236 0.4323,-0.309414 z m -8.12175,-1.049304 c 0.47715,-0.467088 0.31959,-0.573627 -1.20765,-0.816633 -0.69219,-0.110133 -0.7761,-0.02748 -0.75,0.738603 0.0261,0.764202 0.11496,0.841776 0.7794,0.679941 0.4125,-0.100473 0.94272,-0.371331 1.17825,-0.601911 z m 2.42175,0.308724 c 0,-0.566607 -0.57606,-0.562482 -1.33233,0.0095 -0.55122,0.416919 -0.53118,0.44046 0.375,0.44046 0.65097,0 0.95733,-0.144012 0.95733,-0.45 z m 9.3,-0.117903 c 0,-0.337212 -0.78033,-0.651762 -1.02066,-0.411426 -0.36114,0.361128 -0.1641,0.679329 0.42066,0.679329 0.33,0 0.6,-0.120558 0.6,-0.267903 z m -2.91309,-0.932097 c -0.0863,-0.33 -0.27615,-0.6 -0.42189,-0.6 -0.40599,0 -0.31482,0.829899 0.10998,1.001316 0.20625,0.08322 0.39612,0.161973 0.42192,0.174999 0.0258,0.01302 -0.0237,-0.246315 -0.11001,-0.576315 z m 5.00355,0.375 c -0.0171,-0.406644 -0.79947,-1.275 -1.14852,-1.275 -0.44892,0 -0.43809,0.683859 0.018,1.14 0.39843,0.398439 1.1454,0.487641 1.13046,0.135 z m -10.24671,-0.95625 c 0.075,-0.225 -0.0375,-0.3375 -0.2625,-0.2625 -0.21657,0.07219 -0.45282,0.308439 -0.525,0.525 -0.075,0.225 0.0375,0.3375 0.2625,0.2625 0.21657,-0.07219 0.45282,-0.308439 0.525,-0.525 z m -6.06249,-1.1375 c -0.30495,-0.304955 -0.55659,0.154168 -0.30639,0.559013 0.18903,0.305826 0.25968,0.306063 0.36132,0.0012 0.0694,-0.208437 0.0448,-0.460537 -0.0549,-0.560225 z m 10.31874,0.21875 c 0,-0.33 0.11925,-0.6 0.26502,-0.6 0.14574,0 0.33561,0.27 0.42189,0.6 0.27051,1.034355 0.81309,0.65538 0.81309,-0.567903 0,-1.400382 -0.60999,-1.769217 -1.66305,-1.005579 -0.79011,0.572977 -1.18149,1.396914 -0.8886,1.870797 0.32757,0.530052 1.05165,0.32535 1.05165,-0.297315 z m -5.4,-0.171429 c 0,-0.09428 -0.2025,-0.373928 -0.45,-0.621428 -0.2475,-0.2475 -0.45,-0.710357 -0.45,-1.028572 0,-0.79418 -0.43485,-0.72529 -1.0155,0.160874 -0.69384,1.058946 -0.60954,1.307021 0.4905,1.443536 0.53625,0.06655 1.07625,0.142602 1.2,0.169008 0.12375,0.02641 0.225,-0.02913 0.225,-0.123418 z m 4.16433,-2.078571 c -0.34227,-0.336978 -1.16433,0.572965 -1.16433,1.288827 0,0.288656 0.23463,0.198464 0.73452,-0.282339 0.49503,-0.476133 0.63519,-0.804305 0.42981,-1.006488 z m 6.18264,1.045106 c -0.10362,-0.167691 -0.3141,-0.227224 -0.4677,-0.132294 -0.4161,0.257172 -0.33852,0.437188 0.18843,0.437188 0.25725,0 0.38292,-0.137202 0.27927,-0.304894 z m -0.58464,-0.915065 c 0.27612,-0.446745 -0.044,-0.689637 -0.61842,-0.469221 -0.26505,0.101718 -0.39792,0.320896 -0.29523,0.487061 0.24318,0.393462 0.66453,0.385234 0.91365,-0.01784 z M 691.9501,27.29985 c 0.10203,-0.165091 0.7971,-0.454162 1.54458,-0.642381 1.19958,-0.302054 1.34319,-0.425368 1.22364,-1.050733 -0.0897,-0.468962 0.10974,-0.97308 0.58974,-1.491003 1.01553,-1.095779 0.63693,-1.24031 -1.02273,-0.390435 -0.89052,0.456002 -1.47459,0.976866 -1.5753,1.404759 -0.16191,0.688016 -1.48296,1.569957 -2.35164,1.569957 -0.38112,0 -0.35988,0.08561 0.10929,0.440459 0.68604,0.518911 1.22445,0.576795 1.48242,0.159377 z m 5.12064,-0.633377 c 0.22182,-0.358927 -0.4443,-0.918209 -0.81831,-0.687056 -0.28068,0.173475 0.0198,1.020597 0.36198,1.020597 0.13761,0 0.34296,-0.150093 0.45633,-0.333541 z m 2.37927,-0.720567 c 0,-0.839419 -0.8787,-0.746396 -0.99936,0.105797 -0.0771,0.544145 0.024,0.677936 0.45,0.595892 0.3126,-0.0602 0.54936,-0.362623 0.54936,-0.701689 z m -9.81174,-1.219027 0.0883,-0.876865 -0.46329,0.859292 c -0.56091,1.040425 -0.57273,1.176655 -0.0883,1.017572 0.20625,-0.06772 0.41472,-0.517724 0.46326,-0.999999 z m 7.41174,-0.726865 c 0.10197,-0.165 -0.0252,-0.3 -0.2823,-0.3 -0.25722,0 -0.4677,0.135 -0.4677,0.3 0,0.165 0.12702,0.3 0.2823,0.3 0.15525,0 0.36573,-0.135 0.4677,-0.3 z m -5.85,-0.9 c 0,-0.165 -0.135,-0.3 -0.3,-0.3 -0.165,0 -0.3,0.135 -0.3,0.3 0,0.165 0.135,0.3 0.3,0.3 0.165,0 0.3,-0.135 0.3,-0.3 z m -1.25166,-1.003338 c 0.0901,-0.46799 0.0153,-0.498285 -0.52155,-0.211 -0.75879,0.406087 -0.83136,0.997728 -0.10524,0.857891 0.28686,-0.05524 0.56892,-0.346345 0.62679,-0.646891 z m 5.39454,0.178338 c -0.0556,-0.28875 -0.29991,-0.525 -0.54288,-0.525 -0.24297,0 -0.48729,0.23625 -0.54288,0.525 -0.0709,0.368355 0.091,0.525 0.54288,0.525 0.45183,0 0.61383,-0.156645 0.54288,-0.525 z m 2.15712,-0.200464 c 0,-0.722402 -0.34641,-1.374536 -0.73014,-1.374536 -0.23595,0 -0.31902,0.319685 -0.23385,0.9 0.13086,0.891719 0.96399,1.30183 0.96399,0.474536 z m -3.15387,-1.018944 c 0.16287,-0.360575 0.39912,-0.655592 0.525,-0.655592 0.12588,0 0.22887,-0.27 0.22887,-0.6 0,-0.333333 -0.20001,-0.6 -0.45,-0.6 -0.24999,0 -0.45,0.266667 -0.45,0.6 0,0.4 -0.20001,0.6 -0.6,0.6 -0.38181,0 -0.6,0.2 -0.6,0.55 0,1.141952 0.84795,1.208467 1.34613,0.105592 z m 4.14774,-0.381731 c -0.23487,-0.234853 -0.38256,-0.234853 -0.5277,0 -0.31209,0.504968 0.12933,1.050625 0.5277,0.652279 0.23484,-0.234853 0.23484,-0.417426 0,-0.652279 z m -1.29387,-1.183943 c 0.39246,-0.262431 0.38289,-0.34045 -0.075,-0.610313 -0.30759,-0.181291 -0.525,-0.668596 -0.525,-1.176806 0,-0.477064 -0.13596,-0.951412 -0.30213,-1.054108 -0.453,-0.279973 -0.71724,0.695996 -0.31851,1.176434 0.19629,0.236526 0.26175,0.755008 0.15105,1.196179 -0.21057,0.838933 0.22824,1.031186 1.06959,0.468614 z m -3.471,-0.986482 c -0.0881,-0.2296 0.18891,-0.551981 0.65799,-0.765703 0.73935,-0.336864 0.7686,-0.4107 0.33486,-0.84446 -0.73557,-0.735562 -1.42185,-0.278322 -1.42185,0.947312 0,0.582679 0.13077,1.059415 0.29058,1.059415 0.15984,0 0.22212,-0.178453 0.13842,-0.396564 z m 0.46905,-3.191493 c 0.66531,-0.511169 0.69021,-0.596908 0.225,-0.775426 -0.28767,-0.11039 -0.52305,-0.388766 -0.52305,-0.618613 0,-0.549912 -0.30201,-0.518466 -1.12818,0.117463 -0.633,0.487244 -0.64686,0.566753 -0.20799,1.193329 0.56787,0.810746 0.67989,0.816452 1.63422,0.08325 z M 679.13125,3.2437499 C 678.94585,2.687483 678.30001,2.5952219 678.30001,3.125 c 0,0.2612499 0.21375,0.4749999 0.47499,0.4749999 0.26127,0 0.42156,-0.1603125 0.35625,-0.35625 z"
       id="path3354"
       inkscape:connector-curvature="0" />
    <path
       style="fill:#7c421f"
       d="m 41.400001,93.931008 c -1.910301,-0.145614 -2.286594,-0.237099 -1.5,-0.364683 l 1.05,-0.170307 -1.095189,-0.04801 C 36.140671,93.185187 26.730605,90.927498 23.985533,89.540607 19.358053,87.202668 13.755727,81.658329 9.3560395,75.062539 4.3284022,67.525354 1.7175349,61.018153 1.0136649,54.270403 0.83656729,52.572631 0.73955932,52.261837 0.60152716,52.949998 0.30488679,54.428902 0.0431001,46.908707 0.28300513,43.799999 c 0.12096708,-1.5675 0.25568808,-2.3775 0.29938002,-1.8 0.0478131,0.631971 0.2417421,-0.144366 0.48710895,-1.95 0.5030682,-3.702033 0.7742307,-4.903938 2.3012285,-10.2 C 7.254385,16.380358 12.292057,8.8643481 20.047,4.9696447 27.732592,1.109771 35.677705,0.52948495 45.658819,3.099038 c 3.823026,0.9842049 7.205943,2.5180271 23.191182,10.514936 13.043916,6.525457 13.89939,7.003208 15.614058,8.719864 1.452084,1.453768 2.161593,2.534499 3.555762,5.416161 2.41335,4.988244 3.205929,7.1181 5.470281,14.7 2.39082,8.005364 2.657601,10.268444 1.615089,13.700687 -2.932185,9.65358 -12.748803,20.988612 -25.457871,29.395646 -7.647207,5.058618 -13.836132,7.6098 -18.90546,7.793157 l -1.091859,0.03949 1.05,0.221016 c 0.947019,0.199338 0.885258,0.224889 -0.629736,0.260508 -0.923856,0.02172 -2.678856,0.0902 -3.9,0.152184 -1.221147,0.06198 -3.367764,0.02523 -4.770264,-0.08168 z m 9.236823,-1.849221 c 1.602249,-0.175014 3.694548,-0.517536 4.649556,-0.76116 1.771419,-0.451893 7.619352,-3.014157 9.321675,-4.084278 8.108034,-5.096913 13.398858,-9.250991 18.503613,-14.528078 2.941143,-3.040428 5.688333,-6.414084 5.688333,-6.985485 0,-0.406887 0.124725,-0.426903 -1.728219,0.277362 -1.070151,0.406746 -2.277366,0.595587 -3.75,0.586611 -3.574461,-0.02178 -6.311691,-1.050261 -10.82022,-4.065513 -1.456641,-0.974187 -2.941641,-1.931076 -3.3,-2.126421 -1.043646,-0.568902 -4.365084,-1.492845 -6.801561,-1.892031 -1.2375,-0.202749 -2.672967,-0.494082 -3.189927,-0.647406 -0.51696,-0.153324 -1.05696,-0.244626 -1.2,-0.202896 -0.562518,0.164115 -7.249338,-0.87636 -10.010073,-1.557573 -0.7425,-0.183213 -2.11965,-0.493272 -3.060336,-0.689019 -0.940683,-0.195747 -1.878933,-0.524652 -2.085,-0.730902 -0.206064,-0.20625 -0.623043,-0.375 -0.926616,-0.375 -1.896234,0 -5.204169,-3.013161 -6.71416,-6.115854 C 34.649499,47.024447 33.937776,45.799841 33.63228,45.4628 33.326787,45.125759 32.6883,44.247617 32.213418,43.511375 31.738539,42.77513 30.155679,41.02013 28.695953,39.611375 25.657807,36.679313 24.227637,34.862663 22.230658,31.398944 20.976218,29.223142 18.3,23.871109 18.3,23.538218 c 0,-0.06979 -0.81,-1.830511 -1.8,-3.912718 -1.55543,-3.271443 -1.8,-4.021323 -1.8,-5.519028 0,-0.953259 0.2025,-2.217849 0.45,-2.810199 1.007844,-2.412109 0.07033,-2.0374408 -2.290708,0.915461 -4.3116148,5.392443 -6.400645,10.203485 -9.6779162,22.288265 -0.5775217,2.129583 -1.4334055,7.687311 -1.5182536,9.858861 -0.1255507,3.213266 0.4051493,10.997759 0.8822489,12.941138 1.3042512,5.312631 2.0063217,7.315005 3.6770955,10.487448 2.1893412,4.157088 4.6030114,7.837701 7.3857464,11.262551 1.727226,2.125782 6.07474,6.45 6.484748,6.45 0.157389,0 0.731094,0.390657 1.274901,0.868125 1.311162,1.151217 4.155971,2.566698 6.382138,3.175542 0.99,0.270759 2.5425,0.695526 3.45,0.943926 6.111334,1.672788 13.311142,2.263311 19.436824,1.594197 z M 87.381589,63.934372 c 3.702414,-1.71531 6.414897,-5.540154 7.117839,-10.036788 0.427521,-2.734806 0.133875,-4.300881 -2.118351,-11.297585 -0.292122,-0.9075 -0.625173,-2.157741 -0.740112,-2.778315 -0.114939,-0.620571 -0.328677,-1.202289 -0.474972,-1.292703 -0.146295,-0.09042 -0.265992,-0.434046 -0.265992,-0.763623 0,-0.775383 -2.91054,-7.967626 -3.653061,-9.027091 -0.312897,-0.446453 -0.720051,-1.256453 -0.904791,-1.8 C 85.854997,25.504952 84.416746,23.590828 82.83157,22.266139 81.404569,21.073631 60.173314,10.271708 52.950001,7.0631545 50.805001,6.1103581 48.677587,5.1355486 48.222418,4.8969115 47.767246,4.6582745 46.754746,4.3490957 45.972418,4.2098471 45.190087,4.0705988 43.595935,3.7447637 42.429853,3.4857689 38.343373,2.578134 34.72035,2.3349007 30.951663,2.7151752 27.728301,3.0404243 27.240771,3.1758026 24.817411,4.4185445 19.68014,7.0530277 16.235968,11.107618 16.211246,14.55 c -0.01974,2.748308 1.129189,4.533847 6.177233,9.599999 3.906926,3.920941 4.905559,5.136965 7.760606,9.45 3.888846,5.874759 8.167234,11.60097 9.622345,12.878571 2.241591,1.968143 6.343092,3.546836 13.696932,5.272034 7.722669,1.811721 10.330497,2.635428 13.897014,4.389498 3.110862,1.52997 6.332799,3.898524 7.000647,5.146407 0.384153,0.717795 2.646177,2.02128 5.133978,2.958438 0.814485,0.306819 2.274891,0.517773 3.681588,0.531801 1.968306,0.01962 2.622699,-0.111621 4.2,-0.842376 z M 655.50001,92.510556 c -6.51957,-0.816342 -11.27958,-2.792025 -18.94731,-7.864224 -12.70908,-8.407034 -22.52568,-19.742066 -25.45788,-29.395646 -1.0425,-3.432243 -0.77574,-5.695323 1.61508,-13.700687 2.26437,-7.5819 3.05694,-9.711756 5.47029,-14.7 1.39506,-2.883536 2.10273,-3.961138 3.55575,-5.414605 1.71336,-1.713867 2.58018,-2.197939 15.61407,-8.719506 7.59,-3.7976947 15.285,-7.555911 17.1,-8.3515919 3.54105,-1.5523708 7.42329,-2.6650717 11.5359,-3.3063595 1.42668,-0.22246243 2.16486,-0.43279692 1.6641,-0.47415528 -0.495,-0.0408825 0.18,-0.17766413 1.5,-0.30395917 2.63385,-0.25200185 8.29311,0.005029 7.05,0.32019493 -0.59493,0.15083439 -0.41595,0.23576636 0.86571,0.41079922 1.92405,0.2627605 6.74115,1.8800393 9.04122,3.0354903 7.80555,3.9211063 12.82989,11.4035944 16.72236,24.9036924 1.527,5.296062 1.79814,6.497967 2.30121,10.2 0.24537,1.805634 0.43929,2.581971 0.48711,1.95 0.0437,-0.5775 0.17841,0.2325 0.29937,1.8 0.23991,3.108708 -0.0219,10.628903 -0.31851,9.149999 -0.13803,-0.688161 -0.23505,-0.377367 -0.41214,1.320405 -0.70386,6.74775 -3.31473,13.254951 -8.34237,20.792136 -4.39968,6.59579 -10.002,12.140129 -14.6295,14.478068 -1.87875,0.9492 -7.27257,2.46303 -11.41446,3.203586 -3.33873,0.596955 -12.62448,1.001376 -15.3,0.666363 z m 10.33089,-1.33086 c 3.58905,-0.314829 6.08796,-0.748734 9.16911,-1.592106 0.9075,-0.2484 2.46,-0.673167 3.45,-0.943926 2.22618,-0.608844 5.07099,-2.024325 6.38214,-3.175542 0.54381,-0.477468 1.1175,-0.868125 1.27491,-0.868125 0.41001,0 4.75752,-4.324218 6.48474,-6.449999 4.70604,-5.791974 9.24768,-13.853094 10.14114,-18 0.10665,-0.495 0.32961,-1.44 0.49542,-2.1 0.86706,-3.450885 1.16238,-6.079377 1.22688,-10.920474 0.10317,-7.741778 -0.53469,-11.290658 -3.96846,-22.079525 -1.78209,-5.59928 -3.91125,-9.692539 -7.14606,-13.738265 -2.36103,-2.9529018 -3.29856,-3.32757 -2.29071,-0.915461 0.2475,0.59235 0.45,1.845933 0.45,2.78574 0,1.504468 -0.28908,2.333913 -2.41818,6.938362 -3.45315,7.467864 -3.55407,7.672711 -5.11326,10.378569 -1.99509,3.462354 -3.42552,5.279553 -6.46452,8.212431 -1.45971,1.408755 -3.04257,3.163755 -3.51747,3.9 -0.47487,0.736242 -1.11336,1.614384 -1.41885,1.951425 -0.30549,0.337041 -1.01721,1.561647 -1.5816,2.721344 -1.50999,3.102693 -4.81794,6.115854 -6.71418,6.115854 -0.30357,0 -0.72054,0.16875 -0.92661,0.375 -0.20607,0.20625 -1.14432,0.535155 -2.085,0.730902 -0.94068,0.195747 -2.31783,0.505806 -3.06033,0.689019 -2.76075,0.681213 -9.44754,1.721688 -10.01007,1.557573 -0.14304,-0.04173 -0.68304,0.04957 -1.2,0.202896 -0.51696,0.153324 -1.95243,0.444657 -3.18993,0.647406 -2.44365,0.400359 -5.76744,1.325952 -6.79425,1.892031 -0.35433,0.195345 -1.8021,1.129947 -3.21726,2.076891 -2.49606,1.670247 -5.2107,3.053709 -7.40979,3.776277 -1.72794,0.567765 -5.43828,0.440934 -7.25049,-0.247845 -1.85292,-0.704265 -1.72821,-0.684249 -1.72821,-0.277362 0,0.571401 2.74719,3.945057 5.68833,6.985485 5.10477,5.277087 10.39557,9.431165 18.50361,14.528078 1.79037,1.125471 7.63953,3.664821 9.49551,4.122366 3.99783,0.985578 8.96046,1.228257 14.74344,0.720981 z M 626.4373,63.440134 c 2.28309,-0.799797 5.02464,-2.358471 5.40789,-3.074577 0.65751,-1.228524 3.89883,-3.605445 6.98943,-5.125455 3.56652,-1.75407 6.17436,-2.577777 13.89702,-4.389498 7.35384,-1.725198 11.45535,-3.303891 13.69695,-5.272034 1.47987,-1.299345 5.80185,-7.07805 9.6321,-12.878571 2.85528,-4.32403 3.83556,-5.519063 7.7517,-9.45 5.04708,-5.066149 6.19611,-6.852099 6.17637,-9.599999 -0.0249,-3.451367 -3.59616,-7.6463045 -8.67414,-10.1886355 -2.31036,-1.1566976 -2.90664,-1.3185178 -6.01461,-1.6323219 -3.74367,-0.3779864 -7.52319,-0.1317139 -11.49186,0.7488047 -1.18698,0.2633516 -2.79822,0.5927515 -3.58056,0.7319998 -0.78234,0.1392486 -1.79484,0.4484274 -2.25,0.6870645 -0.45516,0.2386371 -2.58258,1.2134465 -4.72758,2.1662429 -7.22331,3.2085539 -28.45458,14.0104765 -29.88156,15.2029845 -1.5852,1.324689 -3.02343,3.238813 -3.5106,4.672128 -0.18474,0.543547 -0.59187,1.353547 -0.90477,1.8 -0.74253,1.059465 -3.65307,8.251708 -3.65307,9.027091 0,0.329577 -0.1197,0.673206 -0.26598,0.763623 -0.14631,0.09041 -0.36003,0.672132 -0.47499,1.292703 -0.11493,0.620574 -0.44799,1.870815 -0.7401,2.778315 -2.25222,6.996704 -2.54589,8.562779 -2.11836,11.297585 0.69636,4.454463 3.39672,8.293833 7.04943,10.022847 1.47327,0.697368 2.2152,0.854532 4.08729,0.8658 1.31973,0.008 2.84256,-0.180759 3.6,-0.446097 z"
       id="path3352"
       inkscape:connector-curvature="0" />
    <path
       style="fill:#783c1b"
       d="m 41.700001,93.599997 1.65,-0.202203 -1.838721,-0.0489 C 38.013223,93.25587 30.857643,91.776441 26.174765,90.178047 19.576343,87.925827 11.487485,79.362297 5.5875088,68.382685 3.1513581,63.849112 0.98973892,56.062954 0.85110103,51.322132 l -0.048899,-1.672134 -0.17972109,1.65 c -0.16774449,1.540044 -0.19001883,1.460076 -0.33424857,-1.2 -0.0849901,-1.5675 -0.0728926,-4.064999 0.0268833,-5.549999 0.16853157,-2.508315 0.18811887,-2.572209 0.27589821,-0.9 0.0908661,1.731012 0.10302139,1.69644 0.31715257,-0.902097 C 1.2103833,39.08042 2.1428266,34.555508 3.5969311,29.699999 5.2637932,24.134057 6.0880939,22.015128 8.16634,17.953983 11.971117,10.518986 16.711893,6.1534543 23.7,3.6498482 30.632082,1.166314 35.566687,0.97610823 43.99936,2.867403 c 4.354896,0.9767237 8.3001,2.7224644 25.115106,11.113363 15.978414,7.973429 15.73326,7.788332 18.832887,14.219233 2.464767,5.113746 3.388332,7.616661 5.700984,15.45 1.627998,5.514299 1.85724,6.599312 1.838145,8.699999 -0.03425,3.768423 -1.637643,7.710555 -5.444478,13.385913 -6.241035,9.304338 -17.364414,18.713987 -28.724943,24.29942 -3.453066,1.697709 -4.795365,2.190162 -7.285638,2.672901 -1.678983,0.32547 -3.82416,0.61377 -4.76706,0.640665 l -1.714362,0.0489 1.65,0.202203 c 1.005534,0.123225 -0.459162,0.202203 -3.75,0.202203 -3.290838,0 -4.755534,-0.07898 -3.75,-0.202203 z m 11.85,-1.337136 c 5.474919,-0.945405 12.302562,-4.543527 20.531772,-10.820115 4.678464,-3.568355 11.357331,-10.090715 14.123724,-13.792748 2.523873,-3.37749 2.418447,-3.713202 -0.755496,-2.40573 -2.011167,0.828477 -5.349807,1.015488 -7.5,0.420108 C 78.101833,65.152624 75.12232,63.59158 71.836939,61.413739 68.184721,58.992721 66.088114,58.382269 56.704081,57.007615 44.48404,55.217518 40.388434,53.923378 37.499269,50.93923 c -0.526761,-0.544077 -1.373427,-1.866732 -1.881483,-2.939232 -1.241902,-2.621639 -3.553657,-5.65898 -6.511644,-8.555435 -4.9474,-4.844487 -7.008286,-8.207037 -11.970935,-19.531827 -2.423402,-5.530215 -2.539399,-6.494949 -1.135245,-9.441684 0.954655,-2.0034242 0.961967,-2.0710523 0.223916,-2.0710523 -0.329732,0 -1.362177,0.8660325 -2.414115,2.0250003 C 9.2001544,15.503614 6.1376944,21.8513 3.4973316,31.799999 1.7659222,38.323826 1.2478329,41.836628 1.2407955,47.099998 c -0.01146,8.57112 1.4471459,15.004356 4.8293419,21.3 4.9619676,9.236241 11.2911686,16.463231 17.7149896,20.227841 2.439199,1.429467 10.205518,3.364536 16.318778,4.06602 3.169296,0.363669 10.137615,0.140307 13.446096,-0.430998 z M 87.235969,64.5238 c 2.96691,-1.16052 6.391002,-5.087541 7.237995,-8.301105 1.059654,-4.020423 0.978003,-5.500524 -0.552912,-10.022696 -0.307221,-0.9075 -0.927828,-3 -1.379127,-4.65 -1.245546,-4.553862 -2.871276,-8.885931 -4.953663,-13.2 C 84.561769,22.080031 85.020988,22.417541 67.869418,13.857293 51.396514,5.6357629 48.306871,4.288214 43.350001,3.1631324 38.560588,2.0760592 32.425392,1.8055688 28.971,2.5291862 24.40639,3.4853687 18.814858,7.1467075 16.872076,10.451568 16.173353,11.640164 16.05,12.187614 16.05,14.1 c 0,3.529805 0.718283,4.740655 5.88516,9.920942 3.771939,3.781729 4.789928,5.030751 8.051711,9.879057 6.4916,9.649098 9.229157,12.968211 11.770307,14.270753 2.945073,1.509585 6.259401,2.619741 11.189823,3.748107 7.704594,1.763256 10.15695,2.541765 14.187507,4.503888 3.531105,1.718982 5.715363,3.361479 6.991407,5.257329 0.488517,0.725805 4.056216,2.621499 5.824086,3.094623 2.614557,0.699723 5.072016,0.615096 7.285968,-0.250899 z M 656.10001,92.398461 c -4.62174,-0.464025 -6.81924,-1.104972 -11.25,-3.281286 -11.31711,-5.558793 -22.45743,-14.986538 -28.692,-24.281264 -3.80685,-5.675358 -5.41023,-9.61749 -5.44449,-13.385913 -0.0192,-2.100687 0.21015,-3.1857 1.83816,-8.699999 2.31264,-7.833339 3.23622,-10.336254 5.70099,-15.45 3.0996,-6.430901 2.85447,-6.245804 18.83286,-14.219233 16.9176,-8.4420794 20.74794,-10.1338875 25.20918,-11.1344612 1.91724,-0.4300003 4.51401,-0.8908711 5.77059,-1.02415712 1.95351,-0.20720855 2.08902,-0.2551547 0.93471,-0.33075083 -1.08219,-0.0708742 -0.90366,-0.12362408 0.9,-0.26591786 1.2375,-0.0976279 3.195,-0.1144006 4.35,-0.0372726 2.03028,0.13557744 2.05518,0.14656416 0.75,0.33095504 l -1.35,0.19072232 1.30671,0.0450581 c 2.54526,0.0877678 8.65671,2.02041975 11.74329,3.71363865 4.4928,2.4646454 8.41905,6.7898745 11.33367,12.4854025 2.07825,4.061145 2.90253,6.180074 4.56939,11.746016 1.4541,4.855509 2.38656,9.380421 2.68878,13.047903 0.1986,2.410278 0.23277,2.5239 0.31617,1.052097 0.084,-1.482828 0.11214,-1.391643 0.27732,0.9 0.1011,1.4025 0.11364,3.832499 0.0279,5.399999 -0.14571,2.662494 -0.16779,2.741442 -0.33567,1.2 l -0.17973,-1.65 -0.0489,1.672134 c -0.13863,4.740822 -2.30025,12.52698 -4.7364,17.060553 -5.89968,10.979025 -13.98744,19.541597 -20.58726,21.795887 -7.57494,2.587347 -16.99476,3.815709 -23.92524,3.119889 z m 13.3173,-1.057794 c 3.94692,-0.594204 10.27347,-2.281593 12.3327,-3.289311 3.65598,-1.789116 8.1396,-5.776515 11.80821,-10.501358 6.53634,-8.418153 9.74628,-15.351282 10.98006,-23.715687 0.4725,-3.203355 0.58608,-11.529173 0.18405,-13.49156 -0.1344,-0.656013 -0.41268,-2.205252 -0.61839,-3.442752 -0.48429,-2.913372 -2.42622,-10.003027 -3.71544,-13.564609 -1.2279,-3.392104 -3.38664,-7.749882 -4.96866,-10.030041 -1.84668,-2.661641 -4.79193,-5.8053492 -5.43885,-5.8053492 -0.7431,0 -0.73626,0.065473 0.21711,2.0710526 1.44345,3.0365696 1.35969,3.7531396 -1.09266,9.3491716 -5.00766,11.42701 -7.05342,14.769319 -12.01158,19.624339 -2.95797,2.896455 -5.26974,5.933796 -6.51165,8.555435 -2.47989,5.23506 -6.20976,6.828378 -21.08628,9.007617 -9.38403,1.374654 -11.48064,1.985106 -15.13287,4.406124 -3.28536,2.177841 -6.26487,3.738885 -8.11305,4.250637 -2.15019,0.59538 -5.48883,0.408369 -7.5,-0.420108 -3.17394,-1.307472 -3.27936,-0.97176 -0.75549,2.40573 4.17207,5.583159 13.82292,14.201369 20.62068,18.414311 7.3959,4.583649 10.91625,5.898909 18.08481,6.756822 2.04471,0.244707 9.49503,-0.09535 12.7173,-0.580464 z m -43.0173,-27.494636 c 1.72992,-0.505269 5.21979,-2.390985 5.67408,-3.065955 1.27605,-1.89585 3.46032,-3.538347 6.99141,-5.257329 4.03056,-1.962123 6.48291,-2.740632 14.18751,-4.503888 4.93041,-1.128366 8.24475,-2.238522 11.18982,-3.748107 2.54115,-1.302542 5.27871,-4.621655 11.77032,-14.270753 3.26178,-4.848306 4.27977,-6.097328 8.0517,-9.879057 5.16687,-5.180287 5.88516,-6.391137 5.88516,-9.920942 0,-1.912386 -0.12336,-2.459836 -0.82209,-3.6484317 -1.94277,-3.3048608 -7.53429,-6.9661996 -12.09891,-7.9223821 -3.45438,-0.72361742 -9.58959,-0.453127 -14.379,0.6339461 -4.95687,1.1250817 -8.04651,2.4726306 -24.51942,10.6941607 -17.15157,8.560248 -16.69236,8.222738 -19.71885,14.492706 -2.08239,4.314069 -3.70812,8.646138 -4.95366,13.2 -0.45129,1.65 -1.06938,3.7425 -1.37352,4.65 -0.30411,0.9075 -0.76227,2.568362 -1.01811,3.690803 -0.42198,1.851474 -0.4209,2.255037 0.0117,4.35 0.55515,2.688606 0.89568,3.538137 2.28096,5.690754 2.86281,4.448622 7.78059,6.292458 12.8409,4.814475 z"
       id="path3350"
       inkscape:connector-curvature="0" />
  </g>
</svg>
