<?xml version="1.0" encoding="UTF-8" standalone="no"?>
<!-- Created with Inkscape (http://www.inkscape.org/) -->

<svg
   xmlns:dc="http://purl.org/dc/elements/1.1/"
   xmlns:cc="http://creativecommons.org/ns#"
   xmlns:rdf="http://www.w3.org/1999/02/22-rdf-syntax-ns#"
   xmlns:svg="http://www.w3.org/2000/svg"
   xmlns="http://www.w3.org/2000/svg"
   xmlns:sodipodi="http://sodipodi.sourceforge.net/DTD/sodipodi-0.dtd"
   xmlns:inkscape="http://www.inkscape.org/namespaces/inkscape"
   id="svg2"
   version="1.1"
   inkscape:version="0.91 r13725"
   width="706.20001"
   height="94.199997"
   viewBox="0 0 706.20001 94.199997"
   sodipodi:docname="Logo_blanco_coco_music.svg"
   shape-rendering="crispEdges">
  <metadata
     id="metadata8">
    <rdf:RDF>
      <cc:Work
         rdf:about="">
        <dc:format>image/svg+xml</dc:format>
        <dc:type
           rdf:resource="http://purl.org/dc/dcmitype/StillImage" />
        <dc:title></dc:title>
      </cc:Work>
    </rdf:RDF>
  </metadata>
  <defs
     id="defs6" />
  <sodipodi:namedview
     pagecolor="#ffffff"
     bordercolor="#666666"
     borderopacity="1"
     objecttolerance="10"
     gridtolerance="10"
     guidetolerance="10"
     inkscape:pageopacity="0"
     inkscape:pageshadow="2"
     inkscape:window-width="1366"
     inkscape:window-height="709"
     id="namedview4"
     showgrid="false"
     inkscape:zoom="1.5259568"
     inkscape:cx="355.2226"
     inkscape:cy="41.34331"
     inkscape:window-x="0"
     inkscape:window-y="27"
     inkscape:window-maximized="1"
     inkscape:current-layer="svg2" />
  <g
     id="g3338"
     transform="matrix(0.97046281,0,0,0.97046281,12.254989,1.3120026)">
    <path
       style="fill:#d3d0c9"
       d="M 37.950001,93.861174 C 32.761131,93.332463 27.470041,92.099517 24.219528,90.661659 20.494777,89.014026 14.994985,84.233607 11.467418,79.577526 4.8276538,70.813618 1.2631944,63.286204 0.56318275,56.549998 0.02183317,51.340597 -0.08515895,45.47681 0.28127817,41.099999 0.71741902,35.890628 0.87885688,35.05334 2.5682357,29.238828 5.5502194,18.975421 8.8856257,12.84575 14.152363,7.9499997 c 3.394182,-3.1550969 8.715311,-5.7152034 14.33675,-6.8977094 2.769741,-0.58263341 8.357059,-0.578979 12.010888,0.00786 7.217337,1.1591631 10.234149,2.3977033 30,12.3163707 12.236988,6.140622 12.48621,6.283666 14.566383,8.360498 1.794831,1.791949 2.380656,2.659949 3.855765,5.712984 2.410659,4.989348 3.203427,7.119255 5.471448,14.7 2.983704,9.972869 2.941476,12.480422 -0.321021,19.062689 -4.293405,8.662179 -13.257213,18.037211 -24.125256,25.232039 -6.637749,4.394301 -11.771595,6.757716 -15.647319,7.203396 -3.607878,0.414879 -13.149069,0.539208 -16.35,0.213047 z M 653.25001,93.126519 c -3.58845,-0.552045 -5.02734,-1.036221 -9.3,-3.129369 -6.79839,-3.330501 -14.04735,-8.545395 -20.20989,-14.53898 -5.49894,-5.348193 -9.05622,-9.987657 -11.61267,-15.145482 -3.2625,-6.582267 -3.30474,-9.08982 -0.32103,-19.062689 2.26803,-7.580745 3.06078,-9.710652 5.47143,-14.7 1.47516,-3.0531 2.06091,-3.920987 3.85578,-5.712916 2.08326,-2.079857 2.31588,-2.21303 14.86638,-8.511491 15.99141,-8.0252787 20.59086,-10.0951016 24.45,-11.0029282 7.81125,-1.83752015 16.24068,-1.74602241 22.04481,0.2392873 8.74947,2.9927655 14.4624,8.9606429 18.74358,19.5800989 1.10055,2.729968 3.45348,10.479662 4.0101,13.207949 0.97242,4.766211 1.14168,14.05049 0.38832,21.299999 -0.6993,6.729396 -4.26522,14.264325 -10.88733,23.005316 -3.25857,4.30122 -8.37453,8.895843 -11.96799,10.748382 -2.6085,1.344777 -8.8122,2.958921 -14.31681,3.7251 -4.12185,0.57372 -11.4777,0.572616 -15.21468,-0.0024 z"
       id="path3352"
       inkscape:connector-curvature="0"
       sodipodi:nodetypes="ssssssssssssssssscssssssssssssssscc" />
    <path
       style="fill:#cbc7bd"
       d="M 37.500001,93.736161 C 33.765099,93.324774 29.343829,92.295537 25.560658,90.956781 18.887552,88.595358 10.811456,80.076561 4.9882675,69.25669 0.61950292,61.139236 -0.83862325,51.721132 0.4599925,40.008353 0.94828834,35.6042 1.234279,34.2788 2.8784945,28.799999 7.0862851,14.778937 13.097976,6.7124929 21.857128,3.334607 29.8155,0.2655339 35.262513,-0.07590264 44.162164,1.9364548 c 4.427373,1.0011024 8.142636,2.633344 24.38607,10.7136342 13.185336,6.55904 14.200236,7.120432 16.114065,8.913496 1.834527,1.718767 2.252127,2.344886 4.101837,6.15 2.038683,4.193862 3.012888,6.607875 4.191564,10.386414 1.795107,5.754678 3.420165,11.717933 3.554862,13.044821 0.421113,4.148292 -2.285094,10.729365 -7.058421,17.164977 -2.757477,3.717756 -10.595196,11.440802 -14.798532,14.582015 -5.796036,4.331463 -12.268089,8.09958 -16.867254,9.82035 -3.569091,1.335366 -13.094358,1.816176 -20.286354,1.023999 z M 83.034637,61.034794 c 2.332323,-0.972783 3.607425,-2.806839 6.246549,-8.984796 1.055001,-2.469663 1.152951,-2.930337 1.148172,-5.399999 -0.0047,-2.410155 -0.142887,-3.08646 -1.287585,-6.3 -0.705297,-1.98 -1.594011,-4.645023 -1.974918,-5.922273 C 86.082118,30.790412 84.973147,28.87599 82.500001,26.371314 79.941631,23.780327 78.673516,22.973154 74.330239,21.17115 70.184695,19.451182 66.754204,17.697595 63.150001,15.45607 59.627968,13.265649 51.477325,8.9169513 47.738938,7.2336469 42.986119,5.0935666 41.125969,4.6536641 36.900001,4.6703705 c -4.099612,0.016207 -7.060843,0.6409193 -9.930128,2.094896 -1.714602,0.8688543 -9.215135,7.7621885 -9.445765,8.6810905 -0.338846,1.35007 0.845192,3.007452 5.574944,7.803642 4.18901,4.247852 5.105617,5.369402 7.968363,9.75 3.65922,5.599362 7.175134,10.357428 9.009025,12.191862 2.174628,2.175269 6.535311,3.921167 13.773561,5.514554 10.42812,2.295585 11.926668,2.854134 17.713299,6.602196 3.883116,2.515137 5.055288,3.1155 7.336701,3.757713 1.851897,0.521307 2.826993,0.51387 4.134636,-0.03153 z M 71.212009,55.687243 C 69.73375,55.207117 67.672234,54.084652 64.134742,51.833776 61.415029,50.103247 58.747282,49.13107 49.955179,46.666487 45.502357,45.41828 42.41545,44.029694 40.571086,42.445235 38.03881,40.269803 35.747032,36.379646 33.77181,30.903878 c -0.590367,-1.636634 -1.193286,-2.641555 -2.264232,-3.773922 -1.438245,-1.520732 -3.160106,-4.028808 -3.821112,-5.565862 -1.1449,-2.662264 -0.585729,-5.963533 1.325521,-7.825698 2.028941,-1.976834 3.564845,-2.459016 8.232417,-2.584486 9.81357,-0.263801 17.943504,2.213723 25.223289,7.686573 1.76973,1.33046 4.67223,3.187556 6.45,4.126878 7.618605,4.025454 9.294081,5.289633 10.810866,8.157011 1.81647,3.433911 4.140045,13.056975 3.893676,16.125626 -0.261726,3.259926 -2.40261,6.525642 -5.209203,7.946145 -1.753599,0.887547 -5.246892,1.125786 -7.201023,0.4911 z M 656.40001,93.410877 c -2.46522,-0.233913 -6.42885,-1.034151 -8.01345,-1.617879 -4.47759,-1.649433 -11.09169,-5.489733 -16.73655,-9.717639 -4.31022,-3.228273 -12.11868,-10.912778 -14.90214,-14.665562 -4.77333,-6.435612 -7.47954,-13.016685 -7.05843,-17.164977 0.1347,-1.326888 1.75977,-7.290143 3.55488,-13.044821 1.17867,-3.778539 2.15286,-6.192552 4.19157,-10.386414 1.84971,-3.805114 2.26731,-4.431233 4.10181,-6.15 1.91385,-1.793064 2.92875,-2.354456 16.11408,-8.913496 19.62927,-9.7645746 21.68856,-10.5724006 29.09823,-11.414807 6.17595,-0.7021423 11.01918,-0.2525902 15.9,1.4758421 4.75794,1.684918 7.37919,3.349374 10.68489,6.7847186 4.88943,5.0811753 8.44893,12.6935563 11.48355,24.5588963 0.68034,2.660052 1.3824,9.60063 1.37562,13.598874 -0.0144,8.523671 -1.56777,15.258578 -4.98234,21.603077 -5.95431,11.063516 -13.97268,19.461341 -20.81172,21.796589 -3.10485,1.060179 -7.41828,2.132904 -10.80417,2.686935 -2.86884,0.469419 -10.6956,0.807897 -13.19583,0.570663 z m -29.25,-33.223019 c 2.41188,-0.651234 3.52449,-1.21287 7.48671,-3.779247 5.78661,-3.748062 7.28517,-4.306611 17.71329,-6.602196 7.23825,-1.593387 11.59893,-3.339284 13.77357,-5.514554 1.83387,-1.834434 5.34981,-6.5925 9.009,-12.191862 2.86275,-4.380597 3.77937,-5.502148 7.96839,-9.75 4.72974,-4.79619 5.91378,-6.453572 5.57493,-7.803642 -0.23064,-0.918902 -7.73115,-7.8122362 -9.44577,-8.6810905 -2.86929,-1.4539766 -5.8305,-2.0786891 -9.93012,-2.094896 -4.22598,-0.016707 -6.08613,0.4231962 -10.83894,2.5632764 -3.73839,1.6833044 -11.88903,6.0320021 -15.41106,8.2224231 -3.6042,2.241525 -7.0347,3.995113 -11.18025,5.71508 -4.34325,1.802004 -5.61138,2.609177 -8.16975,5.200164 -2.47314,2.504676 -3.58212,4.419099 -4.66686,8.056412 -0.38091,1.27725 -1.2696,3.942273 -1.9749,5.922273 -1.14471,3.21354 -1.28292,3.889845 -1.2876,6.3 -0.005,2.469662 0.0932,2.930336 1.14819,5.399999 2.61339,6.117741 3.90051,7.98609 6.18117,8.972418 1.30914,0.566166 2.14551,0.579681 4.05,0.06544 z m 1.8,-5.335434 c -3.63423,-1.354959 -6.45,-5.377644 -6.45,-9.214655 0,-1.527261 1.42197,-8.339547 2.42487,-11.616756 1.7502,-5.719396 3.18477,-7.10707 12.35745,-11.953652 1.77777,-0.939322 4.68027,-2.796418 6.45,-4.126878 7.27977,-5.47285 15.40971,-7.9503744 25.22328,-7.686573 4.66758,0.12547 6.20346,0.607652 8.23242,2.584486 1.91124,1.862165 2.47041,5.163434 1.32552,7.825698 -0.66102,1.537054 -2.38287,4.04513 -3.82113,5.565862 -1.07094,1.132367 -1.67385,2.137288 -2.26422,3.773922 -1.97523,5.475768 -4.26699,9.365925 -6.79929,11.541357 -1.84434,1.584459 -4.93125,2.973045 -9.38409,4.221252 -9.00507,2.524286 -11.43813,3.4211 -14.331,5.282357 -1.5201,0.978015 -3.76437,2.269965 -4.98729,2.871003 -1.90926,0.938379 -2.56635,1.105185 -4.65,1.180461 -1.33458,0.04822 -2.83152,-0.06333 -3.32652,-0.247884 z"
       id="path3350"
       inkscape:connector-curvature="0"
       sodipodi:nodetypes="sssssssssssssssssscsssssssssssssssssssssssssssssssssssssssssssssssssssssssssssssssscsssssssssssssssssss" />
    <path
       style="fill:#a4a19d"
       d="M 37.991866,93.715245 C 34.206474,93.230169 32.007042,92.75439 27.4567,91.436295 24.81583,90.671316 23.653342,90.141153 21.588758,88.760175 16.779216,85.543125 12.47505,80.933031 8.2849078,74.510719 3.3616422,66.964738 1.3985001,61.846378 0.42854509,54.027385 -0.67548634,45.12758 0.34226955,36.833429 3.8405704,26.221254 7.4022682,15.416763 12.199117,8.6155227 18.918166,4.8433963 c 2.264364,-1.271231 8.061389,-3.2411347 10.79523,-3.6683575 3.25322,-0.50838716 9.25965,-0.1722181 13.786605,0.7716116 4.9245,1.0267142 7.911498,2.3245155 25.308147,10.9959806 17.077002,8.512133 16.599231,8.152636 19.928439,14.995107 2.575995,5.294404 2.874318,6.107227 5.478177,14.925937 1.695957,5.74385 2.085237,7.448453 2.085237,9.130985 0,9.615831 -11.164635,24.026757 -26.426943,34.110986 -3.908034,2.582148 -9.692445,5.62605 -12.461817,6.557718 -4.251966,1.430439 -12.836508,1.895436 -19.419375,1.051881 z M 83.47864,61.36048 c 2.161413,-0.903096 3.767913,-3.338241 6.227826,-9.44019 1.209459,-3.000129 1.256355,-3.236121 1.132692,-5.699999 -0.104883,-2.089728 -0.395598,-3.327513 -1.554888,-6.620292 -0.784236,-2.2275 -1.630836,-4.7925 -1.881333,-5.7 -1.118979,-4.053821 -4.548402,-8.668267 -7.976901,-10.733279 -0.897885,-0.540804 -3.037308,-1.56609 -4.754277,-2.278413 -4.237125,-1.75787 -7.639362,-3.50131 -11.247771,-5.763808 -4.3662,-2.737636 -15.99204,-8.6231734 -19.323987,-9.7826956 -2.753376,-0.958178 -3.002565,-0.9910055 -7.35,-0.9682676 -4.017892,0.021015 -4.757125,0.1082766 -6.900001,0.8145023 -3.065315,1.0102338 -4.943581,2.1819177 -7.221204,4.5046709 -1.001662,1.02151 -2.587331,2.506474 -3.523709,3.299919 -3.180466,2.69499 -2.771257,3.875964 3.534194,10.199661 4.049824,4.061543 4.94862,5.161901 8.256192,10.10771 4.510615,6.744717 7.602793,10.878699 9.248527,12.364488 2.312166,2.087456 6.193839,3.64451 12.949575,5.194457 8.72904,2.002674 10.632156,2.568024 13.708908,4.072437 1.678866,0.820902 3.973866,2.168214 5.1,2.994027 4.502427,3.301707 8.825289,4.584459 11.576157,3.435072 z m 570.08514,31.463951 c -3.89892,-0.605913 -5.39472,-1.110093 -9.72711,-3.278598 -13.53144,-6.772935 -26.22699,-18.727436 -31.53663,-29.695835 -3.11892,-6.44289 -3.15126,-8.279853 -0.31479,-17.886323 2.52969,-8.567547 2.90226,-9.59946 5.18577,-14.363676 2.14059,-4.466088 3.28884,-6.111052 5.40114,-7.737744 1.63401,-1.258338 25.97352,-13.5483034 32.20305,-16.2605577 7.02162,-3.0571261 15.86151,-4.30545105 22.3605,-3.15763803 2.94753,0.52057558 7.82124,2.20565123 10.1643,3.51430173 6.68196,3.7320008 11.50092,10.568033 15.05943,21.362893 3.50625,10.636256 4.5531,19.264559 3.399,28.014805 -1.06119,8.045967 -2.99715,12.929322 -8.28585,20.90094 -3.99984,6.028871 -7.54188,9.867356 -12.12258,13.137056 -2.71662,1.939122 -3.78366,2.40495 -8.4186,3.675252 -7.69317,2.108463 -16.78056,2.798787 -23.36763,1.775124 z M 627.29167,60.576175 c 1.9314,-0.44505 4.6488,-1.822305 7.00587,-3.550767 1.12611,-0.825813 3.42111,-2.173125 5.1,-2.994027 3.07674,-1.504413 4.97985,-2.069763 13.70889,-4.072437 6.87948,-1.578336 10.6983,-3.129161 13.05531,-5.301779 1.71048,-1.576662 4.57623,-5.417136 9.14628,-12.257166 3.30792,-4.950962 4.19868,-6.041935 8.2527,-10.10771 4.7232,-4.736845 5.83263,-6.382707 5.41746,-8.036843 -0.0994,-0.396104 -0.94689,-1.369372 -1.88325,-2.162818 -0.93639,-0.793445 -2.52204,-2.2784091 -3.52371,-3.299919 -2.27763,-2.3227532 -4.1559,-3.4944371 -7.22121,-4.5046708 -2.14287,-0.7062258 -2.8821,-0.7934877 -6.9,-0.8145024 -4.34742,-0.022737 -4.59663,0.010089 -7.35,0.9682677 -3.33195,1.1595221 -14.95779,7.0450595 -19.32399,9.7826955 -3.6084,2.262498 -7.01064,4.005938 -11.24778,5.763808 -1.71696,0.712323 -3.85638,1.737609 -4.75428,2.278413 -3.42849,2.065012 -6.85791,6.679458 -7.97688,10.733279 -0.2505,0.9075 -1.0971,3.4725 -1.88133,5.7 -1.15929,3.292779 -1.45002,4.530564 -1.5549,6.620292 -0.12366,2.463878 -0.0768,2.69987 1.13271,5.699999 1.8234,4.523112 2.68263,6.168174 4.00815,7.674045 1.83933,2.08959 3.67749,2.599038 6.78996,1.88184 z"
       id="path3348"
       inkscape:connector-curvature="0"
       sodipodi:nodetypes="sssssssssssssssssssssssssssssssssssssssssssssssssssscsssssccsssssssssscss" />
    <path
       style="fill:#8e5833"
       d="M 40.350001,93.915225 C 35.514163,93.281856 30.846831,92.26116 26.673458,90.924309 20.560039,88.966008 14.426713,83.406336 8.6561122,74.592142 3.5829331,66.843214 1.3328981,60.858694 0.29359944,52.349998 -0.53522008,45.564488 0.40882255,38.401175 3.4713051,28.237847 6.4370296,18.395627 9.9186409,12.341335 15.279141,7.704799 17.493894,5.7891607 20.06728,4.3724015 23.626234,3.1093682 c 4.17837,-1.4828575 6.530345,-1.9095343 10.51838,-1.9081618 6.038932,0.00208 11.621749,1.165937 17.351428,3.6172794 5.998356,2.5662918 30.448983,14.9307392 31.997838,16.1809992 2.161815,1.745052 3.085647,3.061681 5.157597,7.350514 2.302815,4.766712 2.962998,6.590772 5.420868,14.977683 1.652283,5.638037 1.927656,6.916163 1.927656,8.947103 0,11.260092 -16.257939,29.394593 -34.2,38.147513 -2.2275,1.086672 -4.9275,2.17749 -6,2.424042 -1.0725,0.246549 -2.5575,0.595158 -3.3,0.774684 -1.702968,0.411753 -9.762462,0.606906 -12.15,0.294201 z M 83.130235,62.050129 c 1.614435,-0.553893 2.86239,-1.66398 4.108092,-3.654255 1.609317,-2.571222 3.913635,-8.231739 4.141995,-10.174731 0.253839,-2.159777 -0.295737,-5.226845 -1.580646,-8.821256 C 89.219695,37.777448 88.420834,35.39132 88.024429,34.097381 86.869348,30.32699 85.349017,27.713338 82.984285,25.432707 80.860111,23.384078 77.71909,21.343078 75.676117,20.683942 73.486993,19.977651 66.63721,16.555212 63.861937,14.781081 59.090776,11.731051 48.71857,6.419989 44.707612,4.9731556 41.473912,3.8066951 37.083793,3.3743072 33.550968,3.8743247 28.691902,4.562051 24.199729,6.7609999 22.177756,9.4415883 21.753021,10.004671 20.571011,11.092681 19.551066,11.859387 17.330433,13.528667 16.8,14.22649 16.8,15.478616 c 0,2.012075 1.086104,3.571469 5.668646,8.138861 3.90723,3.894315 4.859229,5.051776 7.84039,9.532522 4.117464,6.188634 8.219821,11.674176 9.707086,12.98001 2.274096,1.996682 6.386355,3.601901 13.207947,5.155712 10.325232,2.351865 14.38497,3.924885 19.056447,7.383777 4.098285,3.034485 8.165157,4.30167 10.849719,3.380631 z m 570.132045,30.47408 c -3.56607,-0.55416 -4.99518,-1.051491 -9.53706,-3.318879 -17.52303,-8.747835 -33.52521,-26.805023 -33.52521,-37.830545 0,-2.03094 0.27537,-3.309066 1.92765,-8.947103 2.45787,-8.386911 3.11805,-10.210971 5.42088,-14.977683 2.07177,-4.288469 2.99547,-5.604979 5.1576,-7.350971 1.62894,-1.315424 27.01086,-14.1008999 32.64387,-16.4434987 1.98,-0.8234209 4.95,-1.7886325 6.6,-2.1449146 1.65,-0.3562821 3.6075,-0.8063832 4.35,-1.0002246 1.90407,-0.4970847 9.40986,-0.4636479 11.1,0.0494482 7.01781,2.130493 10.27968,3.5710956 12.8976,5.6962304 5.57151,4.5227183 9.39435,11.0041133 12.42759,21.0702443 3.06624,10.175579 4.0104,17.33522 3.1812,24.123685 -1.03929,8.508696 -3.28932,14.493216 -8.3625,22.242144 -4.16169,6.356684 -8.03436,10.514051 -12.93051,13.881068 -6.0153,4.136637 -21.18039,6.531525 -31.35111,4.950999 z M 629.37475,60.397315 c 1.15017,-0.447483 3.14514,-1.59336 4.43325,-2.546391 4.79307,-3.546255 8.78022,-5.099106 19.16793,-7.465203 6.82161,-1.553811 10.93386,-3.15903 13.20795,-5.155712 1.48728,-1.305834 5.58963,-6.791376 9.7071,-12.98001 2.98116,-4.480746 3.93315,-5.638207 7.84038,-9.532522 4.58256,-4.567392 5.66865,-6.126786 5.66865,-8.138861 0,-1.252126 -0.53043,-1.949949 -2.75106,-3.619229 -1.01994,-0.766706 -2.20197,-1.8547158 -2.62671,-2.4177987 -2.02197,-2.6805884 -6.51414,-4.8795373 -11.37321,-5.5672637 -3.53043,-0.4996813 -7.91991,-0.067639 -11.163,1.0987402 -3.88452,1.3970585 -14.45895,6.8143142 -19.14795,9.8094482 -2.77698,1.773811 -9.62829,5.196183 -11.81418,5.901429 -2.04297,0.659136 -5.184,2.700136 -7.30818,4.748765 -2.36472,2.280631 -3.88506,4.894282 -5.04015,8.664674 -0.39639,1.293939 -1.19526,3.680067 -1.77525,5.302506 -1.2849,3.594411 -1.83447,6.661479 -1.58064,8.821256 0.22938,1.951662 2.53515,7.607544 4.15893,10.20153 2.49093,3.979257 5.45223,4.798095 10.39614,2.874642 z"
       id="path3346"
       inkscape:connector-curvature="0"
       sodipodi:nodetypes="sssssssssssssssssssssssssssssssssssssssssssssssssssssssssssssssssscssss" />
    <path
       style="fill:#5d5d5d"
       d="m 41.550001,93.902004 c -1.611387,-0.112572 -2.216172,-0.227175 -1.5,-0.284235 0.958962,-0.07641 0.748053,-0.147624 -1.05,-0.354552 C 32.072172,92.465934 25.101646,90.399246 21.692505,88.13172 14.534359,83.370618 5.9846905,71.808988 3.002448,62.857345 2.0475562,59.991097 0.92796298,54.767758 0.86050765,52.86436 l -0.0394924,-1.114362 -0.19690047,1.05 c -0.3174684,1.692945 -0.6048582,-4.727949 -0.38242473,-8.544176 0.14540683,-2.494701 0.23936188,-3.011388 0.38292541,-2.105823 l 0.19024137,1.2 0.0425716,-1.235703 C 0.92350042,40.196459 1.7284298,35.888372 2.717771,32.1575 6.6443818,17.349989 11.968876,9.0183414 20.099856,4.9584106 c 2.328046,-1.1624312 6.95706,-2.7053489 9.430242,-3.1432366 5.570505,-0.98628201 14.681713,0.3161468 21.169903,3.0261946 1.5675,0.6547281 9.395391,4.4554142 17.395314,8.4459694 17.368518,8.663837 16.988436,8.385995 20.000457,14.620441 2.321715,4.805609 3.227907,7.307204 5.640135,15.569903 2.716341,9.304379 2.656836,10.760549 -0.71805,17.572316 -5.168871,10.432692 -17.779452,22.234715 -30.765783,28.793165 -4.374846,2.209413 -6.038073,2.760291 -9.936981,3.291234 -1.6308,0.222075 -2.436342,0.417687 -1.790091,0.434688 2.23386,0.05877 0.911553,0.249123 -2.675001,0.38508 -1.98,0.07505 -4.815,0.05159 -6.3,-0.05216 z m 13.301304,-2.388339 c 2.878557,-0.710235 8.052303,-3.08997 11.748696,-5.403969 4.625058,-2.89536 10.887903,-7.847384 14.966364,-11.833889 4.05966,-3.968127 7.877679,-8.611128 7.252455,-8.819535 -0.186711,-0.06224 -0.861528,0.09573 -1.499595,0.35103 -4.16964,1.66836 -9.09225,0.495936 -15.177873,-3.614931 -1.418652,-0.958305 -2.739564,-1.832049 -2.935359,-1.941654 -1.280943,-0.71706 -7.089759,-2.061891 -11.005992,-2.548059 -0.5775,-0.07169 -2.3325,-0.32916 -3.9,-0.572151 -1.5675,-0.242991 -3.255,-0.501756 -3.75,-0.575034 -0.495,-0.07328 -1.44,-0.261024 -2.1,-0.41721 -0.66,-0.156186 -2.130405,-0.490848 -3.267567,-0.743688 -1.137165,-0.252843 -2.210415,-0.602559 -2.385,-0.777144 -0.174588,-0.174588 -0.570144,-0.317433 -0.879012,-0.317433 -0.835413,0 -3.015525,-1.368792 -4.449912,-2.793897 C 36.773152,50.815243 35.813398,49.392946 35.335723,48.345439 34.858044,47.297929 33.934596,45.767057 33.283611,44.9435 32.632623,44.11994 32.1,43.313873 32.1,43.152236 c 0,-0.161637 -1.56924,-1.870764 -3.487202,-3.79806 -4.870154,-4.893858 -6.819184,-7.999239 -11.181063,-17.814731 -0.975072,-2.194195 -1.987773,-4.394446 -2.250448,-4.889446 -0.659722,-1.24322 -0.602097,-3.72129 0.129709,-5.577897 0.336048,-0.85256 0.540917,-1.6201898 0.455264,-1.7058428 -0.08565,-0.085653 -0.731852,0.4432881 -1.435997,1.1754248 -3.022741,3.142907 -3.298114,3.544341 -6.1451718,8.958315 -1.8858957,3.586226 -5.0322343,13.796517 -5.7778811,18.75 -0.1986993,1.32 -0.4786484,3.104013 -0.622109,3.96447 C 1.4194678,44.407493 1.7519729,53.399707 2.2985463,56.099998 3.534019,62.203726 3.784,62.945575 6.2397052,67.795849 11.756839,78.692766 20.236581,87.425973 27.3,89.485647 c 8.207314,2.393229 12.128668,2.940897 19.800001,2.765325 3.967848,-0.09081 5.860866,-0.270876 7.751304,-0.737307 z M 87.015151,64.194028 c 3.141921,-1.23843 6.180636,-4.841004 7.206753,-8.54403 0.668034,-2.410776 0.492708,-5.900781 -0.444591,-8.849999 -0.881274,-2.772936 -1.154187,-3.657138 -2.592708,-8.4 -1.145682,-3.777363 -1.89813,-5.645709 -4.107906,-10.2 -2.677092,-5.51742 -4.015395,-6.612879 -13.426698,-10.990335 -0.495,-0.230238 -1.1025,-0.54304 -1.35,-0.695116 -0.2475,-0.152076 -0.855,-0.469127 -1.35,-0.704559 -0.495,-0.235432 -3.87,-1.921367 -7.5,-3.746523 C 52.143832,6.3787498 48.254026,4.7024177 44.250001,3.7891307 38.704774,2.5243074 34.955442,2.2233466 30.700509,2.7015061 27.912367,3.0148307 27.099826,3.2404574 24.988221,4.2876947 21.349003,6.092542 18.382702,8.6811906 17.182084,11.1 c -1.198915,2.415377 -1.267676,4.109075 -0.266818,6.572202 0.607651,1.495437 1.391748,2.431124 5.211494,6.219039 3.99184,3.958573 4.876158,5.030878 7.883002,9.558758 3.96279,5.967396 8.27815,11.726025 9.766312,13.032651 2.289852,2.010512 6.464394,3.639116 13.473927,5.256542 7.836777,1.80831 10.013214,2.494755 13.8,4.352496 3.58236,1.757454 6.061083,3.519666 7.194471,5.114802 0.600999,0.84585 2.781453,2.106471 5.255529,3.038457 1.960356,0.738471 5.574579,0.713982 7.51515,-0.05092 z M 16.547369,15.6 c 0,-0.4125 0.06809,-0.58125 0.151316,-0.375 0.08322,0.20625 0.08322,0.543749 0,0.749999 -0.08322,0.20625 -0.151316,0.0375 -0.151316,-0.374999 z M 653.88493,92.234397 c -3.89892,-0.530943 -5.56215,-1.081821 -9.93699,-3.291234 -9.79614,-4.947315 -20.2098,-13.552127 -26.49537,-21.893165 -2.72943,-3.621993 -5.76885,-9.364971 -6.50331,-12.28803 -0.82236,-3.273003 -0.62628,-4.850232 1.51485,-12.184286 2.4321,-8.330766 3.33687,-10.824279 5.6523,-15.577683 3.04563,-6.252387 2.65326,-5.965527 19.98828,-14.612661 19.07367,-9.5144085 20.22492,-9.9865174 27.29532,-11.1935465 1.7325,-0.29576466 2.745,-0.57073625 2.25,-0.61104797 -0.495,-0.0403117 0.18,-0.1735469 1.5,-0.29607822 2.65209,-0.2461854 8.27664,0.004437 7.05,0.31413906 -0.60441,0.15259953 -0.4533,0.22994504 0.77838,0.39842465 1.95927,0.26801118 6.94974,1.94941328 9.2736,3.12450548 6.67674,3.3761507 11.8473,10.3330345 15.25926,20.5310525 2.04387,6.10891 3.72102,13.357789 3.83133,16.559509 l 0.0426,1.235703 0.19023,-1.2 c 0.14358,-0.905565 0.23754,-0.388878 0.38295,2.105823 0.22242,3.816227 -0.065,10.237121 -0.38244,8.544176 l -0.19689,-1.05 -0.0395,1.114362 c -0.0674,1.903398 -1.18704,7.126737 -2.14194,9.992985 -2.98224,8.951643 -11.53191,20.513273 -18.69006,25.274375 -6.20832,4.129359 -20.22294,6.418863 -30.62256,5.002677 z m 13.51629,-1.178055 c 3.9087,-0.436524 6.207,-0.930504 11.49879,-2.471472 7.06062,-2.056053 15.54285,-10.791518 21.0603,-21.689021 2.45571,-4.850274 2.70567,-5.592123 3.94116,-11.695851 0.54657,-2.700291 0.87906,-11.692505 0.51345,-13.885529 -0.14346,-0.860457 -0.42342,-2.64447 -0.62211,-3.96447 -0.74565,-4.953483 -3.89199,-15.163774 -5.77788,-18.75 -2.84706,-5.413974 -3.12243,-5.815408 -6.14517,-8.9583146 -0.70416,-0.7321371 -1.35036,-1.2610785 -1.43601,-1.1754252 -0.0856,0.085653 0.11922,0.8532825 0.45525,1.7058428 0.73182,1.856607 0.78945,4.334677 0.12972,5.577897 -0.26268,0.495 -1.27536,2.695251 -2.25045,4.889446 -4.34334,9.773798 -6.30228,12.897542 -11.18394,17.834018 -1.91637,1.937907 -3.48432,3.647034 -3.48432,3.798063 0,0.151026 -0.53262,0.948414 -1.18362,1.771974 -0.65097,0.823557 -1.57443,2.35443 -2.05209,3.401939 -0.47769,1.047507 -1.43745,2.469804 -2.13279,3.160662 -1.43439,1.425105 -3.61452,2.793897 -4.44993,2.793897 -0.30885,0 -0.7044,0.142845 -0.879,0.317433 -0.1746,0.174585 -1.24785,0.524301 -2.385,0.777144 -1.13715,0.25284 -2.60757,0.587502 -3.26757,0.743688 -0.66,0.156186 -1.605,0.343932 -2.1,0.41721 -0.495,0.07328 -2.1825,0.332043 -3.75,0.575034 -1.5675,0.242991 -3.3225,0.50046 -3.9,0.572151 -3.91623,0.486168 -9.72504,1.830999 -11.00598,2.548059 -0.19581,0.109605 -1.51671,0.983349 -2.93538,1.941654 -6.08562,4.110867 -11.00823,5.283291 -15.17787,3.614931 -0.63807,-0.255303 -1.31289,-0.413268 -1.49958,-0.35103 -0.62523,0.208407 3.19278,4.851408 7.25244,8.819535 4.00767,3.917316 10.15116,8.772113 14.95281,11.816258 5.08173,3.221703 11.15895,5.653104 15.16356,6.066684 2.95515,0.305196 8.96733,0.209007 12.65121,-0.202407 z M 626.4373,63.440134 c 2.25639,-0.790443 4.96401,-2.324472 5.5134,-3.123672 1.05624,-1.536507 3.67962,-3.405255 7.19931,-5.12841 3.78816,-1.854591 5.9694,-2.541975 13.8,-4.34886 7.00953,-1.617426 11.18409,-3.24603 13.47393,-5.256542 1.48815,-1.306626 5.80353,-7.065255 9.76632,-13.032651 3.00684,-4.52788 3.89115,-5.600185 7.88298,-9.558758 3.81975,-3.787915 4.60386,-4.723602 5.21151,-6.219039 0.9576,-2.356684 0.91989,-4.034087 -0.14343,-6.379199 -1.09479,-2.414497 -4.04886,-5.038992 -7.77642,-6.9088271 -2.29116,-1.1493114 -3.01731,-1.3572788 -5.86539,-1.6798291 -4.25073,-0.481402 -7.99851,-0.1813512 -13.5495,1.084784 -4.00401,0.9132869 -7.89384,2.589619 -19.2,8.2743352 -3.63,1.825156 -7.005,3.511091 -7.5,3.746523 -0.495,0.235432 -1.1025,0.552483 -1.35,0.704559 -0.2475,0.152076 -0.855,0.464878 -1.35,0.695116 -9.4113,4.377456 -10.7496,5.472915 -13.42671,10.990335 -2.63853,5.437977 -2.90154,6.145014 -5.46834,14.7 -0.22278,0.7425 -0.67908,2.2275 -1.014,3.3 -1.34847,4.318223 -1.46244,6.562925 -0.50262,9.899999 0.98247,3.415875 4.01256,6.880629 7.12098,8.14251 1.65537,0.672006 5.39325,0.722844 7.17798,0.09763 z M 689.44738,14.7 c 0,-0.4125 0.0681,-0.58125 0.15132,-0.375 0.0832,0.20625 0.0832,0.54375 0,0.75 -0.0832,0.20625 -0.15132,0.0375 -0.15132,-0.375 z"
       id="path3344"
       inkscape:connector-curvature="0"
       sodipodi:nodetypes="sssssscssscssssssssssssssssscsssssssssssssssssscsssssssssssssssssssssssssssssssscsscssssssssssssscccssccssccssssssssccssssccsssssssscsscssssssssssssssssssssssssssscss" />
    <path
       style="fill:#783c1b"
       d="m 41.550001,93.902004 c -1.611387,-0.112572 -2.216172,-0.227175 -1.5,-0.284235 0.958962,-0.07641 0.748053,-0.147624 -1.05,-0.354552 C 32.072172,92.465934 25.101646,90.399246 21.692505,88.13172 14.534359,83.370618 5.9846905,71.808988 3.002448,62.857345 2.0475562,59.991097 0.92796298,54.767758 0.86050765,52.86436 l -0.0394924,-1.114362 -0.19690047,1.05 c -0.3174684,1.692945 -0.6048582,-4.727949 -0.38242473,-8.544176 0.14540683,-2.494701 0.23936188,-3.011388 0.38292541,-2.105823 l 0.19024137,1.2 0.0425716,-1.235703 C 0.92350042,40.196459 1.7284298,35.888372 2.717771,32.1575 6.6443818,17.349989 11.968876,9.0183414 20.099856,4.9584106 c 2.328046,-1.1624312 6.95706,-2.7053489 9.430242,-3.1432366 5.570505,-0.98628201 14.681713,0.3161468 21.169903,3.0261946 1.5675,0.6547281 9.395391,4.4554142 17.395314,8.4459694 17.368518,8.663837 16.988436,8.385995 20.000457,14.620441 2.321715,4.805609 3.227907,7.307204 5.640135,15.569903 2.716341,9.304379 2.656836,10.760549 -0.71805,17.572316 -5.168871,10.432692 -17.779452,22.234715 -30.765783,28.793165 -4.374846,2.209413 -6.038073,2.760291 -9.936981,3.291234 -1.6308,0.222075 -2.436342,0.417687 -1.790091,0.434688 2.23386,0.05877 0.911553,0.249123 -2.675001,0.38508 -1.98,0.07505 -4.815,0.05159 -6.3,-0.05216 z m 13.301304,-2.388339 c 2.878557,-0.710235 8.052303,-3.08997 11.748696,-5.403969 4.625058,-2.89536 10.887903,-7.847384 14.966364,-11.833889 4.05966,-3.968127 7.877679,-8.611128 7.252455,-8.819535 -0.186711,-0.06224 -0.861528,0.09573 -1.499595,0.35103 -4.16964,1.66836 -9.09225,0.495936 -15.177873,-3.614931 -1.418652,-0.958305 -2.739564,-1.832049 -2.935359,-1.941654 -1.280943,-0.71706 -7.089759,-2.061891 -11.005992,-2.548059 -0.5775,-0.07169 -2.3325,-0.32916 -3.9,-0.572151 -1.5675,-0.242991 -3.255,-0.501756 -3.75,-0.575034 -0.495,-0.07328 -1.44,-0.261024 -2.1,-0.41721 -0.66,-0.156186 -2.130405,-0.490848 -3.267567,-0.743688 -1.137165,-0.252843 -2.210415,-0.602559 -2.385,-0.777144 -0.174588,-0.174588 -0.570144,-0.317433 -0.879012,-0.317433 -0.835413,0 -3.015525,-1.368792 -4.449912,-2.793897 C 36.773152,50.815243 35.813398,49.392946 35.335723,48.345439 34.858044,47.297929 33.934596,45.767057 33.283611,44.9435 32.632623,44.11994 32.1,43.313873 32.1,43.152236 c 0,-0.161637 -1.56924,-1.870764 -3.487202,-3.79806 -4.870154,-4.893858 -6.819184,-7.999239 -11.181063,-17.814731 -0.975072,-2.194195 -1.987773,-4.394446 -2.250448,-4.889446 -0.659722,-1.24322 -0.602097,-3.72129 0.129709,-5.577897 0.336048,-0.85256 0.540917,-1.6201898 0.455264,-1.7058428 -0.08565,-0.085653 -0.731852,0.4432881 -1.435997,1.1754248 -3.022741,3.142907 -3.298114,3.544341 -6.1451718,8.958315 -1.8858957,3.586226 -5.0322343,13.796517 -5.7778811,18.75 -0.1986993,1.32 -0.4786484,3.104013 -0.622109,3.96447 C 1.4194678,44.407493 1.7519729,53.399707 2.2985463,56.099998 3.534019,62.203726 3.784,62.945575 6.2397052,67.795849 11.756839,78.692766 20.236581,87.425973 27.3,89.485647 c 8.207314,2.393229 12.128668,2.940897 19.800001,2.765325 3.967848,-0.09081 5.860866,-0.270876 7.751304,-0.737307 z M 87.015151,64.194028 c 3.141921,-1.23843 6.180636,-4.841004 7.206753,-8.54403 0.668034,-2.410776 0.492708,-5.900781 -0.444591,-8.849999 -0.881274,-2.772936 -1.154187,-3.657138 -2.592708,-8.4 -1.145682,-3.777363 -1.89813,-5.645709 -4.107906,-10.2 -2.677092,-5.51742 -4.015395,-6.612879 -13.426698,-10.990335 -0.495,-0.230238 -1.1025,-0.54304 -1.35,-0.695116 -0.2475,-0.152076 -0.855,-0.469127 -1.35,-0.704559 -0.495,-0.235432 -3.87,-1.921367 -7.5,-3.746523 C 52.143832,6.3787498 48.254026,4.7024177 44.250001,3.7891307 38.704774,2.5243074 34.955442,2.2233466 30.700509,2.7015061 27.912367,3.0148307 27.099826,3.2404574 24.988221,4.2876947 21.349003,6.092542 18.382702,8.6811906 17.182084,11.1 c -1.198915,2.415377 -1.267676,4.109075 -0.266818,6.572202 0.607651,1.495437 1.391748,2.431124 5.211494,6.219039 3.99184,3.958573 4.876158,5.030878 7.883002,9.558758 3.96279,5.967396 8.27815,11.726025 9.766312,13.032651 2.289852,2.010512 6.464394,3.639116 13.473927,5.256542 7.836777,1.80831 10.013214,2.494755 13.8,4.352496 3.58236,1.757454 6.061083,3.519666 7.194471,5.114802 0.600999,0.84585 2.781453,2.106471 5.255529,3.038457 1.960356,0.738471 5.574579,0.713982 7.51515,-0.05092 z M 653.88493,92.234397 c -3.89892,-0.530943 -5.56215,-1.081821 -9.93699,-3.291234 -9.79614,-4.947315 -20.2098,-13.552127 -26.49537,-21.893165 -2.72943,-3.621993 -5.76885,-9.364971 -6.50331,-12.28803 -0.82236,-3.273003 -0.62628,-4.850232 1.51485,-12.184286 2.4321,-8.330766 3.33687,-10.824279 5.6523,-15.577683 3.04563,-6.252387 2.65326,-5.965527 19.98828,-14.612661 19.07367,-9.5144085 20.22492,-9.9865174 27.29532,-11.1935465 1.7325,-0.29576466 2.745,-0.57073625 2.25,-0.61104797 -0.495,-0.0403117 0.18,-0.1735469 1.5,-0.29607822 2.65209,-0.2461854 8.27664,0.004437 7.05,0.31413906 -0.60441,0.15259953 -0.4533,0.22994504 0.77838,0.39842465 1.95927,0.26801118 6.94974,1.94941328 9.2736,3.12450548 6.67674,3.3761507 11.8473,10.3330345 15.25926,20.5310525 2.04387,6.10891 3.72102,13.357789 3.83133,16.559509 l 0.0426,1.235703 0.19023,-1.2 c 0.14358,-0.905565 0.23754,-0.388878 0.38295,2.105823 0.22242,3.816227 -0.065,10.237121 -0.38244,8.544176 l -0.19689,-1.05 -0.0395,1.114362 c -0.0674,1.903398 -1.18704,7.126737 -2.14194,9.992985 -2.98224,8.951643 -11.53191,20.513273 -18.69006,25.274375 -6.20832,4.129359 -20.22294,6.418863 -30.62256,5.002677 z m 13.51629,-1.178055 c 3.9087,-0.436524 6.207,-0.930504 11.49879,-2.471472 7.06062,-2.056053 15.54285,-10.791518 21.0603,-21.689021 2.45571,-4.850274 2.70567,-5.592123 3.94116,-11.695851 0.54657,-2.700291 0.87906,-11.692505 0.51345,-13.885529 -0.14346,-0.860457 -0.42342,-2.64447 -0.62211,-3.96447 -0.74565,-4.953483 -3.89199,-15.163774 -5.77788,-18.75 -2.84706,-5.413974 -3.12243,-5.815408 -6.14517,-8.9583146 -0.70416,-0.7321371 -1.35036,-1.2610785 -1.43601,-1.1754252 -0.0856,0.085653 0.11922,0.8532825 0.45525,1.7058428 0.73182,1.856607 0.78945,4.334677 0.12972,5.577897 -0.26268,0.495 -1.27536,2.695251 -2.25045,4.889446 -4.34334,9.773798 -6.30228,12.897542 -11.18394,17.834018 -1.91637,1.937907 -3.48432,3.647034 -3.48432,3.798063 0,0.151026 -0.53262,0.948414 -1.18362,1.771974 -0.65097,0.823557 -1.57443,2.35443 -2.05209,3.401939 -0.47769,1.047507 -1.43745,2.469804 -2.13279,3.160662 -1.43439,1.425105 -3.61452,2.793897 -4.44993,2.793897 -0.30885,0 -0.7044,0.142845 -0.879,0.317433 -0.1746,0.174585 -1.24785,0.524301 -2.385,0.777144 -1.13715,0.25284 -2.60757,0.587502 -3.26757,0.743688 -0.66,0.156186 -1.605,0.343932 -2.1,0.41721 -0.495,0.07328 -2.1825,0.332043 -3.75,0.575034 -1.5675,0.242991 -3.3225,0.50046 -3.9,0.572151 -3.91623,0.486168 -9.72504,1.830999 -11.00598,2.548059 -0.19581,0.109605 -1.51671,0.983349 -2.93538,1.941654 -6.08562,4.110867 -11.00823,5.283291 -15.17787,3.614931 -0.63807,-0.255303 -1.31289,-0.413268 -1.49958,-0.35103 -0.62523,0.208407 3.19278,4.851408 7.25244,8.819535 4.00767,3.917316 10.15116,8.772113 14.95281,11.816258 5.08173,3.221703 11.15895,5.653104 15.16356,6.066684 2.95515,0.305196 8.96733,0.209007 12.65121,-0.202407 z M 626.4373,63.440134 c 2.25639,-0.790443 4.96401,-2.324472 5.5134,-3.123672 1.05624,-1.536507 3.67962,-3.405255 7.19931,-5.12841 3.78816,-1.854591 5.9694,-2.541975 13.8,-4.34886 7.00953,-1.617426 11.18409,-3.24603 13.47393,-5.256542 1.48815,-1.306626 5.80353,-7.065255 9.76632,-13.032651 3.00684,-4.52788 3.89115,-5.600185 7.88298,-9.558758 3.81975,-3.787915 4.60386,-4.723602 5.21151,-6.219039 0.9576,-2.356684 0.91989,-4.034087 -0.14343,-6.379199 -1.09479,-2.414497 -4.04886,-5.038992 -7.77642,-6.9088271 -2.29116,-1.1493114 -3.01731,-1.3572788 -5.86539,-1.6798291 -4.25073,-0.481402 -7.99851,-0.1813512 -13.5495,1.084784 -4.00401,0.9132869 -7.89384,2.589619 -19.2,8.2743352 -3.63,1.825156 -7.005,3.511091 -7.5,3.746523 -0.495,0.235432 -1.1025,0.552483 -1.35,0.704559 -0.2475,0.152076 -0.855,0.464878 -1.35,0.695116 -9.4113,4.377456 -10.7496,5.472915 -13.42671,10.990335 -2.63853,5.437977 -2.90154,6.145014 -5.46834,14.7 -0.22278,0.7425 -0.67908,2.2275 -1.014,3.3 -1.34847,4.318223 -1.46244,6.562925 -0.50262,9.899999 0.98247,3.415875 4.01256,6.880629 7.12098,8.14251 1.65537,0.672006 5.39325,0.722844 7.17798,0.09763 z"
       id="path3342"
       inkscape:connector-curvature="0"
       sodipodi:nodetypes="sssssscssscssssssssssssssssscsssssssssssssssssscssssssssssssssssssssssssssssssscssssssssssssscccssccssccssssssssccssssccsssssssscsscssssssssssssssssssssssssss" />
  </g>
  <path
     style="fill:#ffffff"
     d="m 159.55735,89.274432 c -9.94139,-1.343343 -19.08301,-6.037171 -25.78808,-13.24106 -5.46817,-5.874966 -9.19818,-13.335603 -10.84936,-21.7005 -0.73319,-3.714369 -0.73246,-11.566172 0.001,-15.289115 1.76856,-8.971751 5.69289,-16.443579 11.89267,-22.643354 6.09131,-6.091313 13.49479,-10.0775305 22.04335,-11.8686865 3.26742,-0.684614 10.17466,-0.909635 13.8236,-0.450341 6.48872,0.81674 12.47737,2.99606 17.97257,6.5403615 3.43808,2.217504 3.52117,2.602507 1.32782,6.152285 -1.7396,2.815293 -2.58668,3.819736 -3.22139,3.819736 -0.24351,0 -1.50691,-0.682634 -2.80756,-1.516965 -6.35808,-4.078544 -14.1822,-6.100208 -20.88155,-5.395559 -8.46019,0.889854 -15.56446,4.184007 -21.37768,9.912524 -10.28723,10.137848 -12.80998,25.823839 -6.19699,38.534848 7.90128,15.187254 26.29393,21.746146 42.18602,15.04371 1.32993,-0.560892 3.78407,-1.86405 5.45365,-2.895903 2.5864,-1.598484 3.14736,-1.835889 3.79094,-1.604376 0.86726,0.311976 4.58099,6.133664 4.58099,7.181213 0,0.735597 -0.68445,1.390992 -3.03743,2.908487 -4.31566,2.783263 -10.07189,5.119933 -14.99738,6.087991 -2.98719,0.587103 -10.92129,0.82926 -13.91519,0.424704 z m 362.90479,-0.345891 c -0.48729,-0.487287 -0.47067,-4.567969 0.0201,-4.963411 0.20625,-0.166152 0.8475,-0.400494 1.425,-0.520761 3.18522,-0.663342 6.24717,-3.18737 7.74597,-6.385192 0.6321,-1.348575 0.80403,-2.164509 0.80403,-3.815421 0,-2.782011 -0.78699,-4.41192 -4.27323,-8.85 -4.16832,-5.30637 -5.20941,-7.731096 -5.22177,-12.16146 -0.0201,-7.183517 4.74747,-13.510592 11.72445,-15.559925 2.30097,-0.675858 4.11576,-0.63495 4.50999,0.101664 0.43254,0.808209 0.38895,3.70521 -0.0644,4.282617 -0.20625,0.262668 -1.18329,0.706554 -2.17119,0.986418 -4.93131,1.396983 -8.31942,5.460143 -8.35782,10.023059 -0.0216,2.565075 0.60162,3.809667 4.10385,8.195832 3.31917,4.156839 4.86171,7.249095 5.35452,10.733847 1.2495,8.835545 -4.9248,16.809692 -14.02458,18.112781 -0.76152,0.10905 -1.35357,0.04137 -1.575,-0.180048 z M 418.97249,88.018755 c -0.2139,-0.260112 -0.18066,-0.742638 0.10851,-1.575 0.22929,-0.66 4.85502,-11.864999 10.27944,-24.899999 l 9.86253,-23.699999 2.09535,-0.0872 c 1.44009,-0.05993 2.19342,0.03388 2.40903,0.3 0.17256,0.212958 1.76766,3.964698 3.54468,8.337197 1.77705,4.3725 3.32151,8.055303 3.43215,8.184009 0.11067,0.128706 1.72881,-3.448794 3.59592,-7.95 1.86711,-4.501205 3.52659,-8.352758 3.68772,-8.559008 0.18354,-0.234915 1.05981,-0.375 2.34573,-0.375 1.64943,0 2.10801,0.103338 2.33421,0.526029 1.14837,2.14572 20.15259,48.881017 20.08098,49.383214 -0.0841,0.589389 -0.2973,0.647637 -2.66007,0.726612 -2.18172,0.07293 -2.6439,0.0027 -3.0681,-0.466011 -0.27468,-0.303531 -1.82214,-3.919666 -3.43875,-8.03586 -5.48877,-13.975364 -13.12371,-32.820995 -13.29942,-32.827505 -0.21525,-0.008 -6.27504,14.801739 -6.27504,15.335766 0,0.210867 2.17728,5.653872 4.83837,12.095574 5.41182,13.100264 5.43633,13.167479 4.97199,13.631825 -0.35403,0.354024 -24.93207,0.495063 -25.83582,0.148257 -0.261,-0.100152 -0.47454,-0.394881 -0.47454,-0.654954 0,-0.260073 2.31942,-6.061317 5.15424,-12.891656 l 5.15427,-12.418797 -3.12927,-7.751898 c -1.72107,-4.263543 -3.21681,-7.594104 -3.32385,-7.401246 -0.39258,0.707328 -6.75159,16.278408 -11.41467,27.950649 -2.6367,6.599999 -4.98762,12.303749 -5.22429,12.674999 -0.38997,0.611802 -0.66492,0.675 -2.93661,0.675 -1.64064,0 -2.61285,-0.129528 -2.81469,-0.374998 z m 37.13487,-4.724281 c 0,-0.69879 -5.1978,-13.220296 -5.39502,-12.996649 -0.183,0.207513 -1.41225,3.227184 -4.83237,11.87093 l -0.56385,1.424999 5.39562,0 c 3.38844,0 5.39562,-0.111333 5.39562,-0.29928 z m 43.65,-3.030767 c -5.41116,-0.772239 -10.83813,-5.965265 -11.84658,-11.335898 -0.16689,-0.888771 -0.30342,-6.170991 -0.30342,-11.738268 0,-8.314113 0.0751,-10.184634 0.42033,-10.471164 0.26907,-0.223302 1.37571,-0.317496 3.075,-0.261735 l 2.65467,0.08711 0.15,10.8 c 0.14163,10.197648 0.18537,10.875294 0.78432,12.15 3.05511,6.501999 11.94936,6.590946 14.99949,0.15 0.70314,-1.484847 0.71037,-1.602081 0.71325,-11.60547 0.003,-5.832129 0.12666,-10.430883 0.2955,-10.875 0.28434,-0.747795 0.36927,-0.76953 3.00744,-0.76953 2.63817,0 2.7231,0.02175 3.00744,0.76953 0.38946,1.024359 0.37539,18.621858 -0.0168,21.13047 -0.91827,5.872227 -6.19797,11.02133 -12.29055,11.986541 -2.16639,0.343209 -2.1279,0.343344 -4.65,-0.01659 z m 74.4,-0.01896 c -2.23293,-0.419673 -6.07278,-2.403486 -8.00631,-4.136384 -3.69345,-3.310215 -5.67864,-7.829013 -5.69409,-12.961158 -0.0135,-4.452429 1.44348,-8.427735 4.31586,-11.776611 1.66932,-1.946235 5.21469,-4.227159 7.85679,-5.054688 2.92308,-0.915542 7.27128,-0.913037 10.22775,0.0059 2.42961,0.755175 5.72895,2.617122 6.37476,3.597534 0.41538,0.6306 0.36045,0.805311 -0.82512,2.625 -0.69858,1.072191 -1.46577,1.949439 -1.7049,1.949439 -0.23913,0 -0.86451,-0.322398 -1.38975,-0.716442 -1.65765,-1.243596 -3.97341,-2.249262 -5.89017,-2.55795 -4.94217,-0.795915 -10.005,1.98702 -12.37575,6.802707 -0.91929,1.867347 -0.98907,2.221134 -0.98907,5.015376 0,2.741778 0.0821,3.179523 0.93282,4.974834 2.18502,4.611075 7.28646,7.595499 11.94834,6.989955 2.10978,-0.274047 3.59082,-0.834765 5.9229,-2.24238 2.38593,-1.440129 2.64114,-1.373805 4.11513,1.069464 l 1.01916,1.689381 -0.79575,0.830586 c -1.21236,1.26545 -5.31438,3.316937 -7.60116,3.801485 -2.27781,0.482649 -5.17848,0.519273 -7.44144,0.09395 z m -27.37902,-0.899991 c -0.28536,-0.285369 -0.37098,-4.056869 -0.37098,-16.339571 0,-18.534596 -0.27123,-17.045315 3.06993,-16.856523 1.38372,0.07819 2.15748,0.261642 2.34456,0.555897 0.16584,0.260772 0.25008,7.020495 0.20739,16.639197 l -0.0719,16.199999 -2.40402,0.08599 c -1.61265,0.05768 -2.52612,-0.03613 -2.775,-0.285 z M 223.23452,75.20227 c -5.24518,-0.951672 -10.62666,-3.79293 -14.72766,-7.775754 -3.70748,-3.600639 -6.26044,-7.914534 -7.76098,-13.114251 -0.59818,-2.072856 -0.68192,-3.023847 -0.67079,-7.618509 0.0117,-4.837871 0.0765,-5.457137 0.82514,-7.888685 2.59409,-8.425335 7.78828,-14.496484 15.59541,-18.228464 4.23045,-2.022253 6.53274,-2.497226 12.06171,-2.488393 5.54515,0.0089 7.88916,0.493782 12.08703,2.500536 3.28607,1.570875 5.47749,3.050284 7.89945,5.332859 7.85985,7.407499 10.85809,19.384378 7.45757,29.790357 -1.05458,3.227136 -1.89458,4.90221 -3.82712,7.63179 -3.78045,5.339619 -8.83768,8.993406 -15.36693,11.102415 -2.26349,0.731127 -3.0893,0.834378 -7.35,0.918963 -2.64,0.05241 -5.44027,-0.02088 -6.22283,-0.162864 z m 9.93862,-9.168981 c 3.25144,-0.766446 6.47118,-2.644674 9.21059,-5.372988 4.10985,-4.093194 5.93941,-8.353686 5.93315,-13.816545 -0.006,-5.517611 -1.90286,-10.072379 -5.80859,-13.949999 -3.85403,-3.826289 -7.7596,-5.616332 -12.90362,-5.91413 -4.78045,-0.276749 -9.03389,1.082257 -13.0211,4.160336 -5.92962,4.57761 -8.78317,12.434589 -7.22878,19.903793 1.13199,5.439459 5.33321,10.822995 10.40877,13.338036 1.42932,0.708255 3.31765,1.461708 4.19628,1.674339 2.20117,0.532683 6.90612,0.521019 9.2133,-0.02283 z m -7.53337,-13.566981 c -5.98312,-3.471684 -3.68305,-12.17453 3.21758,-12.17453 3.24636,0 5.67026,1.951641 6.44743,5.191245 0.68638,2.861159 -0.88169,5.980745 -3.67174,7.304711 -1.70087,0.807114 -4.28741,0.668394 -5.99327,-0.321426 z m 66.36759,22.838736 c -9.81087,-1.898703 -17.11864,-7.319529 -21.29839,-15.798933 -2.33043,-4.727691 -2.80395,-6.888786 -2.80732,-12.812355 -0.003,-4.534799 0.0658,-5.176472 0.81546,-7.649999 1.57943,-5.211477 3.43911,-8.430651 7.07402,-12.245412 3.68131,-3.863447 8.3474,-6.596479 13.7723,-8.066725 3.05784,-0.828729 9.98028,-0.903809 13.05277,-0.141568 5.94273,1.474302 13.09116,5.646915 13.09116,7.641435 0,0.284268 -0.87951,1.832071 -1.95447,3.43956 -2.32008,3.469445 -2.53623,3.534986 -5.30616,1.608968 -4.40055,-3.059837 -7.70704,-4.209485 -12.08937,-4.203392 -5.39079,0.0075 -9.72835,1.844469 -13.67551,5.791631 -3.65172,3.651717 -5.55264,7.835064 -5.87339,12.925503 -0.21386,3.394127 0.42251,6.317816 2.12222,9.749999 2.3639,4.773408 6.06399,8.022894 11.24135,9.872367 2.37584,0.848706 2.88918,0.92247 6.33533,0.910377 3.30186,-0.01158 4.0368,-0.112623 6.15,-0.845487 2.60661,-0.903975 3.7005,-1.48746 6,-3.200352 2.79123,-2.079189 3.25353,-1.95846 5.67876,1.482966 1.81053,2.56914 2.00691,3.422484 1.06359,4.621722 -0.85017,1.080795 -4.3023,3.319224 -7.0503,4.571529 -4.03881,1.840536 -6.0758,2.279883 -11.09205,2.392389 -2.475,0.05551 -4.8375,0.03561 -5.25,-0.04422 z m 52.5,-0.258321 c -10.65549,-2.387718 -18.57153,-9.802674 -21.7818,-20.402967 -0.73647,-2.431842 -0.82017,-3.176724 -0.84294,-7.5 -0.0276,-5.233274 0.33966,-7.375871 1.94223,-11.332697 6.78528,-16.753171 27.33279,-23.115541 42.46254,-13.148185 6.44529,4.246116 10.87557,10.853509 12.48939,18.626881 0.7593,3.657408 0.60138,9.132449 -0.36783,12.754001 -2.67657,10.001088 -10.52625,17.881014 -20.63871,20.718192 -2.45667,0.689244 -10.67082,0.865614 -13.26288,0.284775 z m 10.60671,-9.022956 c 10.29384,-2.624628 16.91289,-13.113348 14.74209,-23.360702 -1.17231,-5.533974 -5.51226,-11.07135 -10.66812,-13.611506 -5.87508,-2.894506 -12.00264,-2.844601 -17.77083,0.144735 -2.76057,1.430645 -6.58122,5.162831 -8.0847,7.897463 -2.28558,4.15719 -3.11346,9.210137 -2.21184,13.499999 0.59673,2.839218 2.72985,7.168461 4.54728,9.22884 2.48319,2.81517 6.34824,5.197731 10.03941,6.1887 2.22153,0.596412 7.09116,0.602868 9.40671,0.01247 z m -7.15929,-13.289505 c -1.31412,-0.596988 -3.0138,-2.350305 -3.48879,-3.598833 -0.39339,-1.034067 -0.38553,-3.569927 0.0144,-4.621004 1.80312,-4.73979 8.12871,-5.777289 11.3556,-1.862496 3.56541,4.325438 0.55956,10.657901 -5.04825,10.635239 -0.9231,-0.0037 -2.15193,-0.24357 -2.83287,-0.552906 z m 227.87109,13.811313 c -1.18659,-0.636366 -2.11851,-2.188224 -2.11851,-3.527775 0,-2.113716 2.57814,-4.282521 4.6326,-3.897099 3.82767,0.718071 4.68489,6.093582 1.20369,7.548114 -1.36899,0.572007 -2.49078,0.534822 -3.71778,-0.12324 z M 163.19937,54.022114 c -2.84998,-0.910419 -5.29202,-4.292133 -5.29202,-7.328358 0,-2.883245 2.10835,-6.013475 4.84258,-7.189712 3.78093,-1.62651 8.46301,0.216522 10.1855,4.009377 0.68273,1.503348 0.75238,4.567706 0.13728,6.039854 -1.57919,3.779544 -5.90375,5.736909 -9.87334,4.468839 z m 129.79665,-1.612926 c -2.88858,-1.687191 -4.08828,-5.097318 -2.80994,-7.987211 1.2547,-2.836458 3.23375,-4.158672 6.20326,-4.144434 6.55176,0.03142 8.9649,8.332013 3.50923,12.070925 -0.90869,0.622749 -1.5691,0.801522 -3.24121,0.877395 -1.88874,0.0857 -2.25708,0.0035 -3.66134,-0.816675 z"
     id="path3356"
     inkscape:connector-curvature="0"
     sodipodi:nodetypes="ssscsssscssscssssssssccscssssscssssscccsscscscscsccscscssccsscssscscscscsscsscscsssccsccsccsscsssscssssssssscssscsscscsccsssssssssssssscscssssssccssssssscsssssssssssssssssssssssssssssssssssssscscsccccssscsssssscssssc" />
</svg>
